<svg xmlns="http://www.w3.org/2000/svg" viewBox="0 0 1280 440" width="1280" height="440"><defs><filter id="softshadow" x="-30%" y="-30%" width="160%" height="160%"><feDropShadow dx="0" dy="4" stdDeviation="7" flood-color="#140C28" flood-opacity="0.30"/></filter><filter id="glow" x="-50%" y="-50%" width="200%" height="200%"><feGaussianBlur stdDeviation="5" result="b"/><feMerge><feMergeNode in="b"/><feMergeNode in="SourceGraphic"/></feMerge></filter><radialGradient id="rg1" cx="0.5" cy="0.4" r="0.7"><stop offset="0" stop-color="#A100FF" stop-opacity="0.07"/><stop offset="1" stop-color="#A100FF" stop-opacity="0"/></radialGradient><linearGradient id="lg2" x1="0" y1="0" x2="0" y2="1"><stop offset="0" stop-color="#221C38"/><stop offset="1" stop-color="#19152A"/></linearGradient><marker id="ar3" markerWidth="9" markerHeight="9" refX="6" refY="3" orient="auto"><path d="M0,0 L7,3 L0,6 Z" fill="#5B3D9E"/></marker><marker id="ar4" markerWidth="9" markerHeight="9" refX="6" refY="3" orient="auto"><path d="M0,0 L7,3 L0,6 Z" fill="#5B3D9E"/></marker><marker id="ar5" markerWidth="9" markerHeight="9" refX="6" refY="3" orient="auto"><path d="M0,0 L7,3 L0,6 Z" fill="#5B3D9E"/></marker><linearGradient id="lg6" x1="0" y1="0" x2="0" y2="1"><stop offset="0" stop-color="#221C38"/><stop offset="1" stop-color="#19152A"/></linearGradient><marker id="ar7" markerWidth="9" markerHeight="9" refX="6" refY="3" orient="auto"><path d="M0,0 L7,3 L0,6 Z" fill="#5B3D9E"/></marker><marker id="ar8" markerWidth="9" markerHeight="9" refX="6" refY="3" orient="auto"><path d="M0,0 L7,3 L0,6 Z" fill="#5B3D9E"/></marker><marker id="ar9" markerWidth="9" markerHeight="9" refX="6" refY="3" orient="auto"><path d="M0,0 L7,3 L0,6 Z" fill="#5B3D9E"/></marker><linearGradient id="lg10" x1="0" y1="0" x2="0" y2="1"><stop offset="0" stop-color="#221C38"/><stop offset="1" stop-color="#19152A"/></linearGradient><linearGradient id="lg11" x1="0" y1="0" x2="0" y2="1"><stop offset="0" stop-color="#221C38"/><stop offset="1" stop-color="#19152A"/></linearGradient><marker id="ar12" markerWidth="9" markerHeight="9" refX="6" refY="3" orient="auto"><path d="M0,0 L7,3 L0,6 Z" fill="#A100FF"/></marker><marker id="ar13" markerWidth="9" markerHeight="9" refX="6" refY="3" orient="auto"><path d="M0,0 L7,3 L0,6 Z" fill="#A100FF"/></marker><marker id="ar14" markerWidth="9" markerHeight="9" refX="6" refY="3" orient="auto"><path d="M0,0 L7,3 L0,6 Z" fill="#22C36B"/></marker><marker id="ar15" markerWidth="9" markerHeight="9" refX="6" refY="3" orient="auto"><path d="M0,0 L7,3 L0,6 Z" fill="#22C36B"/></marker><linearGradient id="lg16" x1="0" y1="0" x2="1" y2="0"><stop offset="0" stop-color="#420F6A"/><stop offset="1" stop-color="#19152A"/></linearGradient></defs><rect x="0.0" y="0.0" width="1280.0" height="440.0" rx="0.0" ry="0.0" fill="#FFFFFF"/><circle cx="1270.0" cy="6.0" r="180.0" fill="url(#rg1)"/><rect x="40.0" y="36.0" width="6.0" height="20.0" rx="3.0" ry="3.0" fill="#A100FF"/><text x="56.0" y="51.4" font-family="Segoe UI, Calibri, Arial, sans-serif" font-size="16" text-anchor="start"><tspan fill="#1B1430" font-weight="700">How a skill enforces criteria (code_review)</tspan></text><rect x="50.0" y="150.0" width="150.0" height="90.0" rx="14.0" ry="14.0" fill="url(#lg2)" stroke="#5B3D9E" stroke-width="1.1" filter="url(#softshadow)"/><rect x="50.0" y="150.0" width="150.0" height="4.0" rx="2.0" ry="2.0" fill="#9AA0AC"/><circle cx="76.0" cy="180.0" r="15.0" fill="#221C38" stroke="#9AA0AC" stroke-width="1.6"/><path d="M71.88,173.81 L78.06,173.81 L80.81,176.56 L80.81,186.19 L71.88,186.19 Z" fill="none" stroke="#9AA0AC" stroke-width="1.4" stroke-linecap="round" stroke-linejoin="round"/><path d="M78.06,173.81 L78.06,176.56 L80.81,176.56" fill="none" stroke="#9AA0AC" stroke-width="1.4" stroke-linecap="round" stroke-linejoin="round"/><line x1="73.9" y1="179.3" x2="78.8" y2="179.3" stroke="#9AA0AC" stroke-width="1.1199999999999999" stroke-linecap="round"/><line x1="73.9" y1="181.4" x2="78.8" y2="181.4" stroke="#9AA0AC" stroke-width="1.1199999999999999" stroke-linecap="round"/><line x1="73.9" y1="183.4" x2="78.8" y2="183.4" stroke="#9AA0AC" stroke-width="1.1199999999999999" stroke-linecap="round"/><text x="98.0" y="183.5" font-family="Segoe UI, Calibri, Arial, sans-serif" font-size="16.2" text-anchor="start"><tspan fill="#FFFFFF" font-weight="700">diff</tspan></text><text x="66.0" y="207.8" font-family="Segoe UI, Calibri, Arial, sans-serif" font-size="12.7" text-anchor="start"><tspan fill="#9AA0AC" font-weight="400">the change set</tspan></text><rect x="280.0" y="110.0" width="250.0" height="56.0" rx="10.0" ry="10.0" fill="#19152A" stroke="#FF9F2E" stroke-width="1.3" filter="url(#softshadow)"/><circle cx="310.0" cy="138.0" r="21.0" fill="#221C38" stroke="#FF9F2E" stroke-width="1.6"/><circle cx="310.0" cy="138.0" r="8.2" fill="none" stroke="#FF9F2E" stroke-width="1.8942"/><line x1="301.8" y1="138.0" x2="318.2" y2="138.0" stroke="#FF9F2E" stroke-width="1.5153600000000003" stroke-linecap="round"/><path d="M310.0,129.8 A6,11 0 0 0 310.0,146.2" fill="none" stroke="#FF9F2E" stroke-width="1.5153600000000003" stroke-linecap="round" stroke-linejoin="round"/><path d="M310.0,129.8 A6,11 0 0 1 310.0,146.2" fill="none" stroke="#FF9F2E" stroke-width="1.5153600000000003" stroke-linecap="round" stroke-linejoin="round"/><text x="338.0" y="142.9" font-family="Segoe UI, Calibri, Arial, sans-serif" font-size="14.4" text-anchor="start"><tspan fill="#FFFFFF" font-weight="700">lang scan</tspan></text><line x1="204.0" y1="195.0" x2="276.0" y2="138.0" stroke="#5B3D9E" stroke-width="1.6" stroke-linecap="round" marker-end="url(#ar3)"/><rect x="280.0" y="180.0" width="250.0" height="56.0" rx="10.0" ry="10.0" fill="#19152A" stroke="#FF5C72" stroke-width="1.3" filter="url(#softshadow)"/><circle cx="310.0" cy="208.0" r="21.0" fill="#221C38" stroke="#FF5C72" stroke-width="1.6"/><path d="M304.22,199.34 L312.89,199.34 L316.74,203.19 L316.74,216.66 L304.22,216.66 Z" fill="none" stroke="#FF5C72" stroke-width="1.8942" stroke-linecap="round" stroke-linejoin="round"/><path d="M312.89,199.34 L312.89,203.19 L316.74,203.19" fill="none" stroke="#FF5C72" stroke-width="1.8942" stroke-linecap="round" stroke-linejoin="round"/><line x1="307.1" y1="207.0" x2="313.8" y2="207.0" stroke="#FF5C72" stroke-width="1.5153600000000003" stroke-linecap="round"/><line x1="307.1" y1="209.9" x2="313.8" y2="209.9" stroke="#FF5C72" stroke-width="1.5153600000000003" stroke-linecap="round"/><line x1="307.1" y1="212.8" x2="313.8" y2="212.8" stroke="#FF5C72" stroke-width="1.5153600000000003" stroke-linecap="round"/><text x="338.0" y="212.9" font-family="Segoe UI, Calibri, Arial, sans-serif" font-size="14.4" text-anchor="start"><tspan fill="#FFFFFF" font-weight="700">test discovery</tspan></text><line x1="204.0" y1="195.0" x2="276.0" y2="208.0" stroke="#5B3D9E" stroke-width="1.6" stroke-linecap="round" marker-end="url(#ar4)"/><rect x="280.0" y="250.0" width="250.0" height="56.0" rx="10.0" ry="10.0" fill="#19152A" stroke="#00C2E8" stroke-width="1.3" filter="url(#softshadow)"/><circle cx="310.0" cy="278.0" r="21.0" fill="#221C38" stroke="#00C2E8" stroke-width="1.6"/><path d="M302.3,282.8 A8.5,8.5 0 0 1 317.7,282.8" fill="none" stroke="#00C2E8" stroke-width="1.8942" stroke-linecap="round" stroke-linejoin="round"/><line x1="310.0" y1="282.8" x2="313.8" y2="276.6" stroke="#00C2E8" stroke-width="1.8942" stroke-linecap="round"/><circle cx="310.0" cy="282.8" r="1.3" fill="#00C2E8"/><text x="338.0" y="282.9" font-family="Segoe UI, Calibri, Arial, sans-serif" font-size="14.4" text-anchor="start"><tspan fill="#FFFFFF" font-weight="700">exact CI cmd</tspan></text><line x1="204.0" y1="195.0" x2="276.0" y2="278.0" stroke="#5B3D9E" stroke-width="1.6" stroke-linecap="round" marker-end="url(#ar5)"/><rect x="580.0" y="150.0" width="190.0" height="90.0" rx="14.0" ry="14.0" fill="url(#lg6)" stroke="#5B3D9E" stroke-width="1.1" filter="url(#softshadow)"/><rect x="580.0" y="150.0" width="190.0" height="4.0" rx="2.0" ry="2.0" fill="#2FA8D9"/><circle cx="606.0" cy="180.0" r="15.0" fill="#221C38" stroke="#2FA8D9" stroke-width="1.6"/><path d="M611.50,180.00 L609.31,181.34 L609.89,183.89 L607.40,183.29 L606.00,185.50 L604.66,183.31 L602.11,183.89 L602.71,181.40 L600.50,180.00 L602.69,178.66 L602.11,176.11 L604.60,176.71 L606.00,174.50 L607.34,176.69 L609.89,176.11 L609.29,178.60 Z" fill="none" stroke="#2FA8D9" stroke-width="1.4" stroke-linecap="round" stroke-linejoin="round"/><circle cx="606.0" cy="180.0" r="1.7" fill="none" stroke="#2FA8D9" stroke-width="1.4"/><text x="628.0" y="183.5" font-family="Segoe UI, Calibri, Arial, sans-serif" font-size="16.2" text-anchor="start"><tspan fill="#FFFFFF" font-weight="700">grounding</tspan></text><text x="596.0" y="207.8" font-family="Segoe UI, Calibri, Arial, sans-serif" font-size="12.7" text-anchor="start"><tspan fill="#9AA0AC" font-weight="400">ToolResult[]</tspan></text><text x="596.0" y="222.8" font-family="Segoe UI, Calibri, Arial, sans-serif" font-size="12.7" text-anchor="start"><tspan fill="#9AA0AC" font-weight="400">findings + evidence</tspan></text><line x1="534.0" y1="138.0" x2="576.0" y2="195.0" stroke="#5B3D9E" stroke-width="1.6" stroke-linecap="round" marker-end="url(#ar7)"/><line x1="534.0" y1="208.0" x2="576.0" y2="195.0" stroke="#5B3D9E" stroke-width="1.6" stroke-linecap="round" marker-end="url(#ar8)"/><line x1="534.0" y1="278.0" x2="576.0" y2="195.0" stroke="#5B3D9E" stroke-width="1.6" stroke-linecap="round" marker-end="url(#ar9)"/><rect x="840.0" y="108.0" width="190.0" height="84.0" rx="14.0" ry="14.0" fill="url(#lg10)" stroke="#5B3D9E" stroke-width="1.1" filter="url(#softshadow)"/><rect x="840.0" y="108.0" width="190.0" height="4.0" rx="2.0" ry="2.0" fill="#7A38D6"/><circle cx="866.0" cy="138.0" r="15.0" fill="#221C38" stroke="#7A38D6" stroke-width="1.6"/><path d="M866.00,131.81 L867.38,136.62 L872.19,138.00 L867.38,139.38 L866.00,144.19 L864.62,139.38 L859.81,138.00 L864.62,136.62 Z" fill="none" stroke="#7A38D6" stroke-width="1.4" stroke-linecap="round" stroke-linejoin="round"/><text x="888.0" y="141.5" font-family="Segoe UI, Calibri, Arial, sans-serif" font-size="16.2" text-anchor="start"><tspan fill="#FFFFFF" font-weight="700">generate</tspan></text><text x="856.0" y="165.8" font-family="Segoe UI, Calibri, Arial, sans-serif" font-size="12.7" text-anchor="start"><tspan fill="#9AA0AC" font-weight="400">semantic findings</tspan></text><rect x="840.0" y="214.0" width="190.0" height="84.0" rx="14.0" ry="14.0" fill="url(#lg11)" stroke="#5B3D9E" stroke-width="1.1" filter="url(#softshadow)"/><rect x="840.0" y="214.0" width="190.0" height="4.0" rx="2.0" ry="2.0" fill="#FF5C72"/><circle cx="866.0" cy="244.0" r="15.0" fill="#221C38" stroke="#FF5C72" stroke-width="1.6"/><path d="M866.00,237.47 L871.50,239.88 L871.50,244.00 L866.00,250.53 L860.50,244.00 L860.50,239.88 Z" fill="none" stroke="#FF5C72" stroke-width="1.4" stroke-linecap="round" stroke-linejoin="round"/><text x="888.0" y="247.5" font-family="Segoe UI, Calibri, Arial, sans-serif" font-size="16.2" text-anchor="start"><tspan fill="#FFFFFF" font-weight="700">critic</tspan></text><text x="856.0" y="271.8" font-family="Segoe UI, Calibri, Arial, sans-serif" font-size="12.7" text-anchor="start"><tspan fill="#9AA0AC" font-weight="400">blocking gate</tspan></text><line x1="774.0" y1="180.0" x2="836.0" y2="150.0" stroke="#A100FF" stroke-width="2" stroke-linecap="round" marker-end="url(#ar12)"/><line x1="774.0" y1="210.0" x2="836.0" y2="256.0" stroke="#A100FF" stroke-width="2" stroke-linecap="round" marker-end="url(#ar13)"/><rect x="1086.0" y="168.0" width="168.0" height="48.0" rx="24.0" ry="24.0" fill="#19152A" stroke="#22C36B" stroke-width="1.5"/><circle cx="1112.0" cy="192.0" r="19.0" fill="#221C38" stroke="#22C36B" stroke-width="1.6"/><path d="M1105.90,192.44 L1110.26,197.23 L1118.10,186.78" fill="none" stroke="#22C36B" stroke-width="2.05656" stroke-linecap="round" stroke-linejoin="round"/><text x="1138.0" y="196.9" font-family="Segoe UI, Calibri, Arial, sans-serif" font-size="14.4" text-anchor="start"><tspan fill="#FFFFFF" font-weight="700">review.md</tspan></text><line x1="1034.0" y1="150.0" x2="1082.0" y2="186.0" stroke="#22C36B" stroke-width="2" stroke-linecap="round" marker-end="url(#ar14)"/><line x1="1034.0" y1="256.0" x2="1082.0" y2="198.0" stroke="#22C36B" stroke-width="2" stroke-linecap="round" marker-end="url(#ar15)"/><rect x="50.0" y="360.0" width="1204.0" height="38.0" rx="19.0" ry="19.0" fill="url(#lg16)" stroke="#A100FF" stroke-width="1.5" filter="url(#softshadow)"/><circle cx="72.0" cy="379.0" r="13.0" fill="#221C38" stroke="#A100FF" stroke-width="1.6"/><circle cx="72.0" cy="379.0" r="5.1" fill="none" stroke="#A100FF" stroke-width="1.4"/><circle cx="72.0" cy="379.0" r="2.9" fill="none" stroke="#A100FF" stroke-width="1.4"/><circle cx="72.0" cy="379.0" r="0.8" fill="#A100FF"/><text x="96.0" y="384.1" font-family="Segoe UI, Calibri, Arial, sans-serif" font-size="15.0" text-anchor="start"><tspan fill="#FFFFFF" font-weight="700">Deterministic findings are tool-grounded truth; the model adds only what they cannot settle.</tspan></text></svg>