<svg xmlns="http://www.w3.org/2000/svg" viewBox="0 0 1280 380" width="1280" height="380"><defs><filter id="softshadow" x="-30%" y="-30%" width="160%" height="160%"><feDropShadow dx="0" dy="4" stdDeviation="7" flood-color="#140C28" flood-opacity="0.30"/></filter><filter id="glow" x="-50%" y="-50%" width="200%" height="200%"><feGaussianBlur stdDeviation="5" result="b"/><feMerge><feMergeNode in="b"/><feMergeNode in="SourceGraphic"/></feMerge></filter><radialGradient id="rg1" cx="0.5" cy="0.4" r="0.7"><stop offset="0" stop-color="#A100FF" stop-opacity="0.07"/><stop offset="1" stop-color="#A100FF" stop-opacity="0"/></radialGradient><linearGradient id="lg2" x1="0" y1="0" x2="0" y2="1"><stop offset="0" stop-color="#221C38"/><stop offset="1" stop-color="#19152A"/></linearGradient><marker id="ar3" markerWidth="9" markerHeight="9" refX="6" refY="3" orient="auto"><path d="M0,0 L7,3 L0,6 Z" fill="#A100FF"/></marker><linearGradient id="lg4" x1="0" y1="0" x2="0" y2="1"><stop offset="0" stop-color="#221C38"/><stop offset="1" stop-color="#19152A"/></linearGradient><marker id="ar5" markerWidth="9" markerHeight="9" refX="6" refY="3" orient="auto"><path d="M0,0 L7,3 L0,6 Z" fill="#A100FF"/></marker><linearGradient id="lg6" x1="0" y1="0" x2="0" y2="1"><stop offset="0" stop-color="#221C38"/><stop offset="1" stop-color="#19152A"/></linearGradient><marker id="ar7" markerWidth="9" markerHeight="9" refX="6" refY="3" orient="auto"><path d="M0,0 L7,3 L0,6 Z" fill="#A100FF"/></marker><linearGradient id="lg8" x1="0" y1="0" x2="0" y2="1"><stop offset="0" stop-color="#221C38"/><stop offset="1" stop-color="#19152A"/></linearGradient><marker id="ar9" markerWidth="9" markerHeight="9" refX="6" refY="3" orient="auto"><path d="M0,0 L7,3 L0,6 Z" fill="#A100FF"/></marker><linearGradient id="lg10" x1="0" y1="0" x2="0" y2="1"><stop offset="0" stop-color="#221C38"/><stop offset="1" stop-color="#19152A"/></linearGradient></defs><rect x="0.0" y="0.0" width="1280.0" height="380.0" rx="0.0" ry="0.0" fill="#FFFFFF"/><circle cx="1270.0" cy="6.0" r="180.0" fill="url(#rg1)"/><rect x="40.0" y="36.0" width="6.0" height="20.0" rx="3.0" ry="3.0" fill="#A100FF"/><text x="56.0" y="51.4" font-family="Segoe UI, Calibri, Arial, sans-serif" font-size="16" text-anchor="start"><tspan fill="#1B1430" font-weight="700">Data flow — what crosses each boundary</tspan></text><rect x="60.0" y="120.0" width="200.0" height="92.0" rx="14.0" ry="14.0" fill="url(#lg2)" stroke="#5B3D9E" stroke-width="1.1" filter="url(#softshadow)"/><rect x="60.0" y="120.0" width="200.0" height="4.0" rx="2.0" ry="2.0" fill="#9AA0AC"/><circle cx="86.0" cy="150.0" r="15.0" fill="#221C38" stroke="#9AA0AC" stroke-width="1.6"/><rect x="80.2" y="145.2" width="11.7" height="9.6" rx="1.4" ry="1.4" fill="none" stroke="#9AA0AC" stroke-width="1.4"/><path d="M82.56,148.62 L84.62,150.34 L82.56,152.06" fill="none" stroke="#9AA0AC" stroke-width="1.4" stroke-linecap="round" stroke-linejoin="round"/><line x1="86.0" y1="152.4" x2="88.8" y2="152.4" stroke="#9AA0AC" stroke-width="1.4" stroke-linecap="round"/><text x="108.0" y="153.5" font-family="Segoe UI, Calibri, Arial, sans-serif" font-size="16.2" text-anchor="start"><tspan fill="#FFFFFF" font-weight="700">Intake</tspan></text><text x="76.0" y="177.8" font-family="Segoe UI, Calibri, Arial, sans-serif" font-size="12.7" text-anchor="start"><tspan fill="#9AA0AC" font-weight="400">dict</tspan></text><line x1="262.0" y1="166.0" x2="297.0" y2="166.0" stroke="#A100FF" stroke-width="2.4" stroke-linecap="round" marker-end="url(#ar3)"/><text x="280.0" y="152.9" font-family="Segoe UI, Calibri, Arial, sans-serif" font-size="14.4" text-anchor="middle"><tspan fill="#6B7280" font-weight="400">→</tspan></text><rect x="300.0" y="120.0" width="200.0" height="92.0" rx="14.0" ry="14.0" fill="url(#lg4)" stroke="#5B3D9E" stroke-width="1.1" filter="url(#softshadow)"/><rect x="300.0" y="120.0" width="200.0" height="4.0" rx="2.0" ry="2.0" fill="#2FA8D9"/><circle cx="326.0" cy="150.0" r="15.0" fill="#221C38" stroke="#2FA8D9" stroke-width="1.6"/><path d="M331.50,150.00 L329.31,151.34 L329.89,153.89 L327.40,153.29 L326.00,155.50 L324.66,153.31 L322.11,153.89 L322.71,151.40 L320.50,150.00 L322.69,148.66 L322.11,146.11 L324.60,146.71 L326.00,144.50 L327.34,146.69 L329.89,146.11 L329.29,148.60 Z" fill="none" stroke="#2FA8D9" stroke-width="1.4" stroke-linecap="round" stroke-linejoin="round"/><circle cx="326.0" cy="150.0" r="1.7" fill="none" stroke="#2FA8D9" stroke-width="1.4"/><text x="348.0" y="153.5" font-family="Segoe UI, Calibri, Arial, sans-serif" font-size="16.2" text-anchor="start"><tspan fill="#FFFFFF" font-weight="700">ground</tspan></text><text x="316.0" y="177.8" font-family="Segoe UI, Calibri, Arial, sans-serif" font-size="12.7" text-anchor="start"><tspan fill="#9AA0AC" font-weight="400">ToolResult[]</tspan></text><line x1="502.0" y1="166.0" x2="537.0" y2="166.0" stroke="#A100FF" stroke-width="2.4" stroke-linecap="round" marker-end="url(#ar5)"/><text x="520.0" y="152.9" font-family="Segoe UI, Calibri, Arial, sans-serif" font-size="14.4" text-anchor="middle"><tspan fill="#6B7280" font-weight="400">→</tspan></text><rect x="540.0" y="120.0" width="200.0" height="92.0" rx="14.0" ry="14.0" fill="url(#lg6)" stroke="#5B3D9E" stroke-width="1.1" filter="url(#softshadow)"/><rect x="540.0" y="120.0" width="200.0" height="4.0" rx="2.0" ry="2.0" fill="#7A38D6"/><circle cx="566.0" cy="150.0" r="15.0" fill="#221C38" stroke="#7A38D6" stroke-width="1.6"/><path d="M566.00,143.81 L567.38,148.62 L572.19,150.00 L567.38,151.38 L566.00,156.19 L564.62,151.38 L559.81,150.00 L564.62,148.62 Z" fill="none" stroke="#7A38D6" stroke-width="1.4" stroke-linecap="round" stroke-linejoin="round"/><text x="588.0" y="153.5" font-family="Segoe UI, Calibri, Arial, sans-serif" font-size="16.2" text-anchor="start"><tspan fill="#FFFFFF" font-weight="700">generate</tspan></text><text x="556.0" y="177.8" font-family="Segoe UI, Calibri, Arial, sans-serif" font-size="12.7" text-anchor="start"><tspan fill="#9AA0AC" font-weight="400">draft</tspan></text><line x1="742.0" y1="166.0" x2="777.0" y2="166.0" stroke="#A100FF" stroke-width="2.4" stroke-linecap="round" marker-end="url(#ar7)"/><text x="760.0" y="152.9" font-family="Segoe UI, Calibri, Arial, sans-serif" font-size="14.4" text-anchor="middle"><tspan fill="#6B7280" font-weight="400">→</tspan></text><rect x="780.0" y="120.0" width="200.0" height="92.0" rx="14.0" ry="14.0" fill="url(#lg8)" stroke="#5B3D9E" stroke-width="1.1" filter="url(#softshadow)"/><rect x="780.0" y="120.0" width="200.0" height="4.0" rx="2.0" ry="2.0" fill="#FF5C72"/><circle cx="806.0" cy="150.0" r="15.0" fill="#221C38" stroke="#FF5C72" stroke-width="1.6"/><path d="M806.00,143.47 L811.50,145.88 L811.50,150.00 L806.00,156.53 L800.50,150.00 L800.50,145.88 Z" fill="none" stroke="#FF5C72" stroke-width="1.4" stroke-linecap="round" stroke-linejoin="round"/><text x="828.0" y="153.5" font-family="Segoe UI, Calibri, Arial, sans-serif" font-size="16.2" text-anchor="start"><tspan fill="#FFFFFF" font-weight="700">critic</tspan></text><text x="796.0" y="177.8" font-family="Segoe UI, Calibri, Arial, sans-serif" font-size="12.7" text-anchor="start"><tspan fill="#9AA0AC" font-weight="400">CriticVerdict</tspan></text><line x1="982.0" y1="166.0" x2="1017.0" y2="166.0" stroke="#A100FF" stroke-width="2.4" stroke-linecap="round" marker-end="url(#ar9)"/><text x="1000.0" y="152.9" font-family="Segoe UI, Calibri, Arial, sans-serif" font-size="14.4" text-anchor="middle"><tspan fill="#6B7280" font-weight="400">→</tspan></text><rect x="1020.0" y="120.0" width="200.0" height="92.0" rx="14.0" ry="14.0" fill="url(#lg10)" stroke="#5B3D9E" stroke-width="1.1" filter="url(#softshadow)"/><rect x="1020.0" y="120.0" width="200.0" height="4.0" rx="2.0" ry="2.0" fill="#22C36B"/><circle cx="1046.0" cy="150.0" r="15.0" fill="#221C38" stroke="#22C36B" stroke-width="1.6"/><path d="M1041.19,150.34 L1044.62,154.12 L1050.81,145.88" fill="none" stroke="#22C36B" stroke-width="1.68" stroke-linecap="round" stroke-linejoin="round"/><text x="1068.0" y="153.5" font-family="Segoe UI, Calibri, Arial, sans-serif" font-size="16.2" text-anchor="start"><tspan fill="#FFFFFF" font-weight="700">decide</tspan></text><text x="1036.0" y="177.8" font-family="Segoe UI, Calibri, Arial, sans-serif" font-size="12.7" text-anchor="start"><tspan fill="#9AA0AC" font-weight="400">artifacts</tspan></text><rect x="60.0" y="290.0" width="1160.0" height="60.0" rx="12.0" ry="12.0" fill="#221C38" stroke="#5B3D9E" stroke-width="1.2" filter="url(#softshadow)"/><circle cx="100.0" cy="320.0" r="17.0" fill="#221C38" stroke="#A100FF" stroke-width="1.6"/><circle cx="100.0" cy="320.0" r="6.6" fill="none" stroke="#A100FF" stroke-width="1.5334000000000003"/><line x1="100.0" y1="320.0" x2="100.0" y2="316.1" stroke="#A100FF" stroke-width="1.5334000000000003" stroke-linecap="round"/><line x1="100.0" y1="320.0" x2="103.1" y2="321.2" stroke="#A100FF" stroke-width="1.5334000000000003" stroke-linecap="round"/><text x="128.0" y="312.1" font-family="Segoe UI, Calibri, Arial, sans-serif" font-size="15.0" text-anchor="start"><tspan fill="#FFFFFF" font-weight="700">RunRecord (provenance)</tspan></text><text x="128.0" y="335.5" font-family="Segoe UI, Calibri, Arial, sans-serif" font-size="13.2" text-anchor="start"><tspan fill="#9AA0AC" font-weight="400">grounding evidence · critic verdicts · decision · artifacts — appended at every step</tspan></text><line x1="160.0" y1="212.0" x2="160.0" y2="290.0" stroke="#5B3D9E" stroke-width="1.0" stroke-linecap="round" opacity="0.5"/><line x1="400.0" y1="212.0" x2="400.0" y2="290.0" stroke="#5B3D9E" stroke-width="1.0" stroke-linecap="round" opacity="0.5"/><line x1="640.0" y1="212.0" x2="640.0" y2="290.0" stroke="#5B3D9E" stroke-width="1.0" stroke-linecap="round" opacity="0.5"/><line x1="880.0" y1="212.0" x2="880.0" y2="290.0" stroke="#5B3D9E" stroke-width="1.0" stroke-linecap="round" opacity="0.5"/><line x1="1120.0" y1="212.0" x2="1120.0" y2="290.0" stroke="#5B3D9E" stroke-width="1.0" stroke-linecap="round" opacity="0.5"/></svg>