<svg xmlns="http://www.w3.org/2000/svg" viewBox="0 0 1110 560" width="1110" height="560"><defs><filter id="softshadow" x="-30%" y="-30%" width="160%" height="160%"><feDropShadow dx="0" dy="4" stdDeviation="7" flood-color="#140C28" flood-opacity="0.30"/></filter><filter id="glow" x="-50%" y="-50%" width="200%" height="200%"><feGaussianBlur stdDeviation="5" result="b"/><feMerge><feMergeNode in="b"/><feMergeNode in="SourceGraphic"/></feMerge></filter><radialGradient id="rg1" cx="0.5" cy="0.4" r="0.7"><stop offset="0" stop-color="#A100FF" stop-opacity="0.07"/><stop offset="1" stop-color="#A100FF" stop-opacity="0"/></radialGradient><linearGradient id="lg2" x1="0" y1="0" x2="0" y2="1"><stop offset="0" stop-color="#221C38"/><stop offset="1" stop-color="#19152A"/></linearGradient><linearGradient id="lg3" x1="0" y1="0" x2="0" y2="1"><stop offset="0" stop-color="#221C38"/><stop offset="1" stop-color="#19152A"/></linearGradient><linearGradient id="lg4" x1="0" y1="0" x2="0" y2="1"><stop offset="0" stop-color="#221C38"/><stop offset="1" stop-color="#19152A"/></linearGradient><linearGradient id="lg5" x1="0" y1="0" x2="0" y2="1"><stop offset="0" stop-color="#221C38"/><stop offset="1" stop-color="#19152A"/></linearGradient><linearGradient id="lg6" x1="0" y1="0" x2="0" y2="1"><stop offset="0" stop-color="#221C38"/><stop offset="1" stop-color="#19152A"/></linearGradient><linearGradient id="lg7" x1="0" y1="0" x2="0" y2="1"><stop offset="0" stop-color="#221C38"/><stop offset="1" stop-color="#19152A"/></linearGradient><marker id="ar8" markerWidth="9" markerHeight="9" refX="6" refY="3" orient="auto"><path d="M0,0 L7,3 L0,6 Z" fill="#5B3D9E"/></marker><marker id="ar9" markerWidth="9" markerHeight="9" refX="6" refY="3" orient="auto"><path d="M0,0 L7,3 L0,6 Z" fill="#5B3D9E"/></marker><marker id="ar10" markerWidth="9" markerHeight="9" refX="6" refY="3" orient="auto"><path d="M0,0 L7,3 L0,6 Z" fill="#5B3D9E"/></marker><marker id="ar11" markerWidth="9" markerHeight="9" refX="6" refY="3" orient="auto"><path d="M0,0 L7,3 L0,6 Z" fill="#5B3D9E"/></marker><marker id="ar12" markerWidth="9" markerHeight="9" refX="6" refY="3" orient="auto"><path d="M0,0 L7,3 L0,6 Z" fill="#5B3D9E"/></marker></defs><rect x="0.0" y="0.0" width="1110.0" height="560.0" rx="0.0" ry="0.0" fill="#FFFFFF"/><circle cx="1100.0" cy="6.0" r="180.0" fill="url(#rg1)"/><rect x="40.0" y="36.0" width="6.0" height="20.0" rx="3.0" ry="3.0" fill="#A100FF"/><text x="56.0" y="51.4" font-family="Segoe UI, Calibri, Arial, sans-serif" font-size="16" text-anchor="start"><tspan fill="#1B1430" font-weight="700">Domain model — one typed contract</tspan></text><rect x="60.0" y="100.0" width="210.0" height="110.0" rx="12.0" ry="12.0" fill="url(#lg2)" stroke="#FF9F2E" stroke-width="1.5" filter="url(#softshadow)"/><rect x="60.0" y="100.0" width="210.0" height="34.0" rx="12.0" ry="12.0" fill="#FF9F2E"/><rect x="60.0" y="118.0" width="210.0" height="16.0" rx="0.0" ry="0.0" fill="#19152A"/><text x="74.0" y="123.1" font-family="Segoe UI, Calibri, Arial, sans-serif" font-size="15.0" text-anchor="start"><tspan fill="#FFFFFF" font-weight="700">Severity «enum»</tspan></text><text x="74.0" y="153.3" font-family="Segoe UI, Calibri, Arial, sans-serif" font-size="12.7" text-anchor="start"><tspan fill="#CBD0D9" font-weight="400">BLOCKER / MAJOR</tspan></text><text x="74.0" y="173.3" font-family="Segoe UI, Calibri, Arial, sans-serif" font-size="12.7" text-anchor="start"><tspan fill="#CBD0D9" font-weight="400">MINOR / NIT</tspan></text><text x="74.0" y="193.3" font-family="Segoe UI, Calibri, Arial, sans-serif" font-size="12.7" text-anchor="start"><tspan fill="#CBD0D9" font-weight="400">+ is_blocking</tspan></text><rect x="60.0" y="250.0" width="250.0" height="130.0" rx="12.0" ry="12.0" fill="url(#lg3)" stroke="#FF5C72" stroke-width="1.5" filter="url(#softshadow)"/><rect x="60.0" y="250.0" width="250.0" height="34.0" rx="12.0" ry="12.0" fill="#FF5C72"/><rect x="60.0" y="268.0" width="250.0" height="16.0" rx="0.0" ry="0.0" fill="#19152A"/><text x="74.0" y="273.1" font-family="Segoe UI, Calibri, Arial, sans-serif" font-size="15.0" text-anchor="start"><tspan fill="#FFFFFF" font-weight="700">Finding</tspan></text><text x="74.0" y="303.3" font-family="Segoe UI, Calibri, Arial, sans-serif" font-size="12.7" text-anchor="start"><tspan fill="#CBD0D9" font-weight="400">severity: Severity</tspan></text><text x="74.0" y="323.3" font-family="Segoe UI, Calibri, Arial, sans-serif" font-size="12.7" text-anchor="start"><tspan fill="#CBD0D9" font-weight="400">category · message</tspan></text><text x="74.0" y="343.3" font-family="Segoe UI, Calibri, Arial, sans-serif" font-size="12.7" text-anchor="start"><tspan fill="#CBD0D9" font-weight="400">location · evidence</tspan></text><text x="74.0" y="363.3" font-family="Segoe UI, Calibri, Arial, sans-serif" font-size="12.7" text-anchor="start"><tspan fill="#CBD0D9" font-weight="400">suggested_fix · source</tspan></text><rect x="400.0" y="110.0" width="270.0" height="130.0" rx="12.0" ry="12.0" fill="url(#lg4)" stroke="#2FA8D9" stroke-width="1.5" filter="url(#softshadow)"/><rect x="400.0" y="110.0" width="270.0" height="34.0" rx="12.0" ry="12.0" fill="#2FA8D9"/><rect x="400.0" y="128.0" width="270.0" height="16.0" rx="0.0" ry="0.0" fill="#19152A"/><text x="414.0" y="133.1" font-family="Segoe UI, Calibri, Arial, sans-serif" font-size="15.0" text-anchor="start"><tspan fill="#FFFFFF" font-weight="700">ToolResult</tspan></text><text x="414.0" y="163.3" font-family="Segoe UI, Calibri, Arial, sans-serif" font-size="12.7" text-anchor="start"><tspan fill="#CBD0D9" font-weight="400">tool · ran · reason</tspan></text><text x="414.0" y="183.3" font-family="Segoe UI, Calibri, Arial, sans-serif" font-size="12.7" text-anchor="start"><tspan fill="#CBD0D9" font-weight="400">findings: Finding[]</tspan></text><text x="414.0" y="203.3" font-family="Segoe UI, Calibri, Arial, sans-serif" font-size="12.7" text-anchor="start"><tspan fill="#CBD0D9" font-weight="400">data: dict</tspan></text><text x="414.0" y="223.3" font-family="Segoe UI, Calibri, Arial, sans-serif" font-size="12.7" text-anchor="start"><tspan fill="#CBD0D9" font-weight="400">+ blocking() · clean()</tspan></text><rect x="400.0" y="320.0" width="270.0" height="130.0" rx="12.0" ry="12.0" fill="url(#lg5)" stroke="#A100FF" stroke-width="1.5" filter="url(#softshadow)"/><rect x="400.0" y="320.0" width="270.0" height="34.0" rx="12.0" ry="12.0" fill="#A100FF"/><rect x="400.0" y="338.0" width="270.0" height="16.0" rx="0.0" ry="0.0" fill="#19152A"/><text x="414.0" y="343.1" font-family="Segoe UI, Calibri, Arial, sans-serif" font-size="15.0" text-anchor="start"><tspan fill="#FFFFFF" font-weight="700">CriticVerdict</tspan></text><text x="414.0" y="373.3" font-family="Segoe UI, Calibri, Arial, sans-serif" font-size="12.7" text-anchor="start"><tspan fill="#CBD0D9" font-weight="400">clean: bool</tspan></text><text x="414.0" y="393.3" font-family="Segoe UI, Calibri, Arial, sans-serif" font-size="12.7" text-anchor="start"><tspan fill="#CBD0D9" font-weight="400">blocking: Finding[]</tspan></text><text x="414.0" y="413.3" font-family="Segoe UI, Calibri, Arial, sans-serif" font-size="12.7" text-anchor="start"><tspan fill="#CBD0D9" font-weight="400">attacks_tried · notes</tspan></text><text x="414.0" y="433.3" font-family="Segoe UI, Calibri, Arial, sans-serif" font-size="12.7" text-anchor="start"><tspan fill="#CBD0D9" font-weight="400">+ messages()</tspan></text><rect x="760.0" y="150.0" width="290.0" height="130.0" rx="12.0" ry="12.0" fill="url(#lg6)" stroke="#7A38D6" stroke-width="1.5" filter="url(#softshadow)"/><rect x="760.0" y="150.0" width="290.0" height="34.0" rx="12.0" ry="12.0" fill="#7A38D6"/><rect x="760.0" y="168.0" width="290.0" height="16.0" rx="0.0" ry="0.0" fill="#19152A"/><text x="774.0" y="173.1" font-family="Segoe UI, Calibri, Arial, sans-serif" font-size="15.0" text-anchor="start"><tspan fill="#FFFFFF" font-weight="700">RunState</tspan></text><text x="774.0" y="203.3" font-family="Segoe UI, Calibri, Arial, sans-serif" font-size="12.7" text-anchor="start"><tspan fill="#CBD0D9" font-weight="400">skill · intake · plan</tspan></text><text x="774.0" y="223.3" font-family="Segoe UI, Calibri, Arial, sans-serif" font-size="12.7" text-anchor="start"><tspan fill="#CBD0D9" font-weight="400">grounding: ToolResult[]</tspan></text><text x="774.0" y="243.3" font-family="Segoe UI, Calibri, Arial, sans-serif" font-size="12.7" text-anchor="start"><tspan fill="#CBD0D9" font-weight="400">draft · rounds · decision</tspan></text><text x="774.0" y="263.3" font-family="Segoe UI, Calibri, Arial, sans-serif" font-size="12.7" text-anchor="start"><tspan fill="#CBD0D9" font-weight="400">critic_history · artifacts</tspan></text><rect x="760.0" y="380.0" width="290.0" height="110.0" rx="12.0" ry="12.0" fill="url(#lg7)" stroke="#00C2E8" stroke-width="1.5" filter="url(#softshadow)"/><rect x="760.0" y="380.0" width="290.0" height="34.0" rx="12.0" ry="12.0" fill="#00C2E8"/><rect x="760.0" y="398.0" width="290.0" height="16.0" rx="0.0" ry="0.0" fill="#19152A"/><text x="774.0" y="403.1" font-family="Segoe UI, Calibri, Arial, sans-serif" font-size="15.0" text-anchor="start"><tspan fill="#FFFFFF" font-weight="700">RunRecord</tspan></text><text x="774.0" y="433.3" font-family="Segoe UI, Calibri, Arial, sans-serif" font-size="12.7" text-anchor="start"><tspan fill="#CBD0D9" font-weight="400">run_id · skill · steps[]</tspan></text><text x="774.0" y="453.3" font-family="Segoe UI, Calibri, Arial, sans-serif" font-size="12.7" text-anchor="start"><tspan fill="#CBD0D9" font-weight="400">final_decision</tspan></text><text x="774.0" y="473.3" font-family="Segoe UI, Calibri, Arial, sans-serif" font-size="12.7" text-anchor="start"><tspan fill="#CBD0D9" font-weight="400">artifacts (append-only JSON)</tspan></text><line x1="310.0" y1="300.0" x2="398.0" y2="230.0" stroke="#5B3D9E" stroke-width="1.6" stroke-linecap="round" marker-end="url(#ar8)"/><line x1="310.0" y1="330.0" x2="398.0" y2="380.0" stroke="#5B3D9E" stroke-width="1.6" stroke-linecap="round" marker-end="url(#ar9)"/><line x1="672.0" y1="220.0" x2="758.0" y2="250.0" stroke="#5B3D9E" stroke-width="1.6" stroke-linecap="round" marker-end="url(#ar10)"/><line x1="672.0" y1="380.0" x2="758.0" y2="320.0" stroke="#5B3D9E" stroke-width="1.6" stroke-linecap="round" marker-end="url(#ar11)"/><line x1="900.0" y1="300.0" x2="900.0" y2="378.0" stroke="#5B3D9E" stroke-width="1.6" stroke-linecap="round" marker-end="url(#ar12)"/><text x="905.0" y="343.3" font-family="Segoe UI, Calibri, Arial, sans-serif" font-size="12.6" text-anchor="start"><tspan fill="#6B7280" font-weight="400" font-style="italic">mirrors</tspan></text></svg>