<svg xmlns="http://www.w3.org/2000/svg" viewBox="0 0 1260 460" width="1260" height="460"><defs><filter id="softshadow" x="-30%" y="-30%" width="160%" height="160%"><feDropShadow dx="0" dy="4" stdDeviation="7" flood-color="#140C28" flood-opacity="0.30"/></filter><filter id="glow" x="-50%" y="-50%" width="200%" height="200%"><feGaussianBlur stdDeviation="5" result="b"/><feMerge><feMergeNode in="b"/><feMergeNode in="SourceGraphic"/></feMerge></filter><radialGradient id="rg1" cx="0.5" cy="0.4" r="0.7"><stop offset="0" stop-color="#A100FF" stop-opacity="0.07"/><stop offset="1" stop-color="#A100FF" stop-opacity="0"/></radialGradient></defs><rect x="0.0" y="0.0" width="1260.0" height="460.0" rx="0.0" ry="0.0" fill="#FFFFFF"/><circle cx="1250.0" cy="6.0" r="180.0" fill="url(#rg1)"/><rect x="40.0" y="36.0" width="6.0" height="20.0" rx="3.0" ry="3.0" fill="#A100FF"/><text x="56.0" y="51.4" font-family="Segoe UI, Calibri, Arial, sans-serif" font-size="16" text-anchor="start"><tspan fill="#1B1430" font-weight="700">Extension points</tspan></text><rect x="60.0" y="110.0" width="1140.0" height="68.0" rx="12.0" ry="12.0" fill="#19152A" stroke="#00C2E8" stroke-width="1.3" filter="url(#softshadow)"/><circle cx="98.0" cy="144.0" r="16.0" fill="#221C38" stroke="#00C2E8" stroke-width="1.6"/><circle cx="98.0" cy="144.0" r="6.2" fill="none" stroke="#00C2E8" stroke-width="1.4432000000000003"/><circle cx="98.0" cy="144.0" r="3.5" fill="none" stroke="#00C2E8" stroke-width="1.4432000000000003"/><circle cx="98.0" cy="144.0" r="1.0" fill="#00C2E8"/><text x="126.0" y="137.3" font-family="Segoe UI, Calibri, Arial, sans-serif" font-size="15.6" text-anchor="start"><tspan fill="#FFFFFF" font-weight="700">New criterion</tspan></text><text x="126.0" y="161.7" font-family="Segoe UI, Calibri, Arial, sans-serif" font-size="13.8" text-anchor="start"><tspan fill="#9AA0AC" font-weight="400">add a RubricItem → semantic auto-injected; deterministic wires a check</tspan></text><rect x="60.0" y="194.0" width="1140.0" height="68.0" rx="12.0" ry="12.0" fill="#19152A" stroke="#22C36B" stroke-width="1.3" filter="url(#softshadow)"/><circle cx="98.0" cy="228.0" r="16.0" fill="#221C38" stroke="#22C36B" stroke-width="1.6"/><path d="M98.00,221.40 L99.47,226.53 L104.60,228.00 L99.47,229.47 L98.00,234.60 L96.53,229.47 L91.40,228.00 L96.53,226.53 Z" fill="none" stroke="#22C36B" stroke-width="1.4432000000000003" stroke-linecap="round" stroke-linejoin="round"/><text x="126.0" y="221.3" font-family="Segoe UI, Calibri, Arial, sans-serif" font-size="15.6" text-anchor="start"><tspan fill="#FFFFFF" font-weight="700">New capability</tspan></text><text x="126.0" y="245.7" font-family="Segoe UI, Calibri, Arial, sans-serif" font-size="13.8" text-anchor="start"><tspan fill="#9AA0AC" font-weight="400">Skill subclass + prompts/&lt;skill&gt;.md + register + Node</tspan></text><rect x="60.0" y="278.0" width="1140.0" height="68.0" rx="12.0" ry="12.0" fill="#19152A" stroke="#2FA8D9" stroke-width="1.3" filter="url(#softshadow)"/><circle cx="98.0" cy="312.0" r="16.0" fill="#221C38" stroke="#2FA8D9" stroke-width="1.6"/><path d="M103.87,312.00 L101.54,313.43 L102.15,316.15 L99.49,315.51 L98.00,317.87 L96.57,315.54 L93.85,316.15 L94.49,313.49 L92.13,312.00 L94.46,310.57 L93.85,307.85 L96.51,308.49 L98.00,306.13 L99.43,308.46 L102.15,307.85 L101.51,310.51 Z" fill="none" stroke="#2FA8D9" stroke-width="1.4432000000000003" stroke-linecap="round" stroke-linejoin="round"/><circle cx="98.0" cy="312.0" r="1.8" fill="none" stroke="#2FA8D9" stroke-width="1.4432000000000003"/><text x="126.0" y="305.3" font-family="Segoe UI, Calibri, Arial, sans-serif" font-size="15.6" text-anchor="start"><tspan fill="#FFFFFF" font-weight="700">New tool</tspan></text><text x="126.0" y="329.7" font-family="Segoe UI, Calibri, Arial, sans-serif" font-size="13.8" text-anchor="start"><tspan fill="#9AA0AC" font-weight="400">a function returning ToolResult, called from a skill&#x27;s ground()</tspan></text><rect x="60.0" y="362.0" width="1140.0" height="68.0" rx="12.0" ry="12.0" fill="#19152A" stroke="#FF9F2E" stroke-width="1.3" filter="url(#softshadow)"/><circle cx="98.0" cy="396.0" r="16.0" fill="#221C38" stroke="#FF9F2E" stroke-width="1.6"/><path d="M93.60,389.40 L100.20,389.40 L103.13,392.33 L103.13,402.60 L93.60,402.60 Z" fill="none" stroke="#FF9F2E" stroke-width="1.4432000000000003" stroke-linecap="round" stroke-linejoin="round"/><path d="M100.20,389.40 L100.20,392.33 L103.13,392.33" fill="none" stroke="#FF9F2E" stroke-width="1.4432000000000003" stroke-linecap="round" stroke-linejoin="round"/><line x1="95.8" y1="395.3" x2="100.9" y2="395.3" stroke="#FF9F2E" stroke-width="1.1545600000000003" stroke-linecap="round"/><line x1="95.8" y1="397.5" x2="100.9" y2="397.5" stroke="#FF9F2E" stroke-width="1.1545600000000003" stroke-linecap="round"/><line x1="95.8" y1="399.7" x2="100.9" y2="399.7" stroke="#FF9F2E" stroke-width="1.1545600000000003" stroke-linecap="round"/><text x="126.0" y="389.3" font-family="Segoe UI, Calibri, Arial, sans-serif" font-size="15.6" text-anchor="start"><tspan fill="#FFFFFF" font-weight="700">New client</tspan></text><text x="126.0" y="413.7" font-family="Segoe UI, Calibri, Arial, sans-serif" font-size="13.8" text-anchor="start"><tspan fill="#9AA0AC" font-weight="400">replace standards/ + rubric incident refs — no code change</tspan></text></svg>