<svg xmlns="http://www.w3.org/2000/svg" viewBox="0 0 1100 470" width="1100" height="470"><defs><filter id="softshadow" x="-30%" y="-30%" width="160%" height="160%"><feDropShadow dx="0" dy="4" stdDeviation="7" flood-color="#140C28" flood-opacity="0.30"/></filter><filter id="glow" x="-50%" y="-50%" width="200%" height="200%"><feGaussianBlur stdDeviation="5" result="b"/><feMerge><feMergeNode in="b"/><feMergeNode in="SourceGraphic"/></feMerge></filter><radialGradient id="rg1" cx="0.5" cy="0.4" r="0.7"><stop offset="0" stop-color="#A100FF" stop-opacity="0.07"/><stop offset="1" stop-color="#A100FF" stop-opacity="0"/></radialGradient><linearGradient id="lg2" x1="0" y1="0" x2="0" y2="1"><stop offset="0" stop-color="#221C38"/><stop offset="1" stop-color="#19152A"/></linearGradient><marker id="ar3" markerWidth="9" markerHeight="9" refX="6" refY="3" orient="auto"><path d="M0,0 L7,3 L0,6 Z" fill="#5B3D9E"/></marker><marker id="ar4" markerWidth="9" markerHeight="9" refX="6" refY="3" orient="auto"><path d="M0,0 L7,3 L0,6 Z" fill="#5B3D9E"/></marker><marker id="ar5" markerWidth="9" markerHeight="9" refX="6" refY="3" orient="auto"><path d="M0,0 L7,3 L0,6 Z" fill="#5B3D9E"/></marker><marker id="ar6" markerWidth="9" markerHeight="9" refX="6" refY="3" orient="auto"><path d="M0,0 L7,3 L0,6 Z" fill="#5B3D9E"/></marker><marker id="ar7" markerWidth="9" markerHeight="9" refX="6" refY="3" orient="auto"><path d="M0,0 L7,3 L0,6 Z" fill="#5B3D9E"/></marker></defs><rect x="0.0" y="0.0" width="1100.0" height="470.0" rx="0.0" ry="0.0" fill="#FFFFFF"/><circle cx="1090.0" cy="6.0" r="180.0" fill="url(#rg1)"/><rect x="40.0" y="36.0" width="6.0" height="20.0" rx="3.0" ry="3.0" fill="#A100FF"/><text x="56.0" y="51.4" font-family="Segoe UI, Calibri, Arial, sans-serif" font-size="16" text-anchor="start"><tspan fill="#1B1430" font-weight="700">One run record → five layers of history</tspan></text><rect x="60.0" y="150.0" width="230.0" height="120.0" rx="14.0" ry="14.0" fill="url(#lg2)" stroke="#5B3D9E" stroke-width="1.1" filter="url(#softshadow)"/><rect x="60.0" y="150.0" width="230.0" height="4.0" rx="2.0" ry="2.0" fill="#A100FF"/><circle cx="86.0" cy="180.0" r="15.0" fill="#221C38" stroke="#A100FF" stroke-width="1.6"/><circle cx="86.0" cy="180.0" r="5.8" fill="none" stroke="#A100FF" stroke-width="1.4"/><line x1="86.0" y1="180.0" x2="86.0" y2="176.6" stroke="#A100FF" stroke-width="1.4" stroke-linecap="round"/><line x1="86.0" y1="180.0" x2="88.8" y2="181.0" stroke="#A100FF" stroke-width="1.4" stroke-linecap="round"/><text x="108.0" y="183.5" font-family="Segoe UI, Calibri, Arial, sans-serif" font-size="16.2" text-anchor="start"><tspan fill="#FFFFFF" font-weight="700">RunRecord</tspan></text><text x="76.0" y="207.8" font-family="Segoe UI, Calibri, Arial, sans-serif" font-size="12.7" text-anchor="start"><tspan fill="#9AA0AC" font-weight="400">immutable JSON</tspan></text><text x="76.0" y="222.8" font-family="Segoe UI, Calibri, Arial, sans-serif" font-size="12.7" text-anchor="start"><tspan fill="#9AA0AC" font-weight="400">evidence · verdicts</tspan></text><text x="76.0" y="237.8" font-family="Segoe UI, Calibri, Arial, sans-serif" font-size="12.7" text-anchor="start"><tspan fill="#9AA0AC" font-weight="400">decision · artifacts</tspan></text><rect x="520.0" y="110.0" width="540.0" height="52.0" rx="10.0" ry="10.0" fill="#19152A" stroke="#00C2E8" stroke-width="1.3" filter="url(#softshadow)"/><circle cx="548.0" cy="136.0" r="19.0" fill="#221C38" stroke="#00C2E8" stroke-width="1.6"/><path d="M542.77,128.16 L550.61,128.16 L554.10,131.65 L554.10,143.84 L542.77,143.84 Z" fill="none" stroke="#00C2E8" stroke-width="1.7138000000000002" stroke-linecap="round" stroke-linejoin="round"/><path d="M550.61,128.16 L550.61,131.65 L554.10,131.65" fill="none" stroke="#00C2E8" stroke-width="1.7138000000000002" stroke-linecap="round" stroke-linejoin="round"/><line x1="545.4" y1="135.1" x2="551.5" y2="135.1" stroke="#00C2E8" stroke-width="1.3710400000000003" stroke-linecap="round"/><line x1="545.4" y1="137.7" x2="551.5" y2="137.7" stroke="#00C2E8" stroke-width="1.3710400000000003" stroke-linecap="round"/><line x1="545.4" y1="140.4" x2="551.5" y2="140.4" stroke="#00C2E8" stroke-width="1.3710400000000003" stroke-linecap="round"/><text x="574.0" y="140.9" font-family="Segoe UI, Calibri, Arial, sans-serif" font-size="14.4" text-anchor="start"><tspan fill="#FFFFFF" font-weight="700">Functional — what it does, per role</tspan></text><line x1="296.0" y1="210.0" x2="514.0" y2="136.0" stroke="#5B3D9E" stroke-width="1.5" stroke-linecap="round" marker-end="url(#ar3)"/><rect x="520.0" y="174.0" width="540.0" height="52.0" rx="10.0" ry="10.0" fill="#19152A" stroke="#2FA8D9" stroke-width="1.3" filter="url(#softshadow)"/><circle cx="548.0" cy="200.0" r="19.0" fill="#221C38" stroke="#2FA8D9" stroke-width="1.6"/><path d="M554.97,200.00 L552.20,201.70 L552.93,204.93 L549.77,204.17 L548.00,206.97 L546.30,204.20 L543.07,204.93 L543.83,201.77 L541.03,200.00 L543.80,198.30 L543.07,195.07 L546.23,195.83 L548.00,193.03 L549.70,195.80 L552.93,195.07 L552.17,198.23 Z" fill="none" stroke="#2FA8D9" stroke-width="1.7138000000000002" stroke-linecap="round" stroke-linejoin="round"/><circle cx="548.0" cy="200.0" r="2.1" fill="none" stroke="#2FA8D9" stroke-width="1.7138000000000002"/><text x="574.0" y="204.9" font-family="Segoe UI, Calibri, Arial, sans-serif" font-size="14.4" text-anchor="start"><tspan fill="#FFFFFF" font-weight="700">Operational — how it runs, state</tspan></text><line x1="296.0" y1="210.0" x2="514.0" y2="200.0" stroke="#5B3D9E" stroke-width="1.5" stroke-linecap="round" marker-end="url(#ar4)"/><rect x="520.0" y="238.0" width="540.0" height="52.0" rx="10.0" ry="10.0" fill="#19152A" stroke="#22C36B" stroke-width="1.3" filter="url(#softshadow)"/><circle cx="548.0" cy="264.0" r="19.0" fill="#221C38" stroke="#22C36B" stroke-width="1.6"/><circle cx="542.8" cy="258.8" r="2.3" fill="none" stroke="#22C36B" stroke-width="1.7138000000000002"/><circle cx="542.8" cy="269.2" r="2.3" fill="none" stroke="#22C36B" stroke-width="1.7138000000000002"/><circle cx="553.2" cy="261.4" r="2.3" fill="none" stroke="#22C36B" stroke-width="1.7138000000000002"/><line x1="542.8" y1="261.0" x2="542.8" y2="267.0" stroke="#22C36B" stroke-width="1.7138000000000002" stroke-linecap="round"/><path d="M542.77,266.61 L542.77,264.00 L550.96,261.82" fill="none" stroke="#22C36B" stroke-width="1.7138000000000002" stroke-linecap="round" stroke-linejoin="round"/><text x="574.0" y="268.9" font-family="Segoe UI, Calibri, Arial, sans-serif" font-size="14.4" text-anchor="start"><tspan fill="#FFFFFF" font-weight="700">Change — one per merged PR</tspan></text><line x1="296.0" y1="210.0" x2="514.0" y2="264.0" stroke="#5B3D9E" stroke-width="1.5" stroke-linecap="round" marker-end="url(#ar5)"/><rect x="520.0" y="302.0" width="540.0" height="52.0" rx="10.0" ry="10.0" fill="#19152A" stroke="#FF9F2E" stroke-width="1.3" filter="url(#softshadow)"/><circle cx="548.0" cy="328.0" r="19.0" fill="#221C38" stroke="#FF9F2E" stroke-width="1.6"/><path d="M548.00,320.16 L554.97,322.78 L548.00,325.39 L541.03,322.78 Z" fill="none" stroke="#FF9F2E" stroke-width="1.7138000000000002" stroke-linecap="round" stroke-linejoin="round"/><path d="M548.00,324.52 L554.97,327.13 L548.00,329.74 L541.03,327.13 Z" fill="none" stroke="#FF9F2E" stroke-width="1.7138000000000002" stroke-linecap="round" stroke-linejoin="round"/><path d="M548.00,328.87 L554.97,331.48 L548.00,334.10 L541.03,331.48 Z" fill="none" stroke="#FF9F2E" stroke-width="1.7138000000000002" stroke-linecap="round" stroke-linejoin="round"/><text x="574.0" y="332.9" font-family="Segoe UI, Calibri, Arial, sans-serif" font-size="14.4" text-anchor="start"><tspan fill="#FFFFFF" font-weight="700">Architectural — milestones / ADRs</tspan></text><line x1="296.0" y1="210.0" x2="514.0" y2="328.0" stroke="#5B3D9E" stroke-width="1.5" stroke-linecap="round" marker-end="url(#ar6)"/><rect x="520.0" y="366.0" width="540.0" height="52.0" rx="10.0" ry="10.0" fill="#19152A" stroke="#FF5C72" stroke-width="1.3" filter="url(#softshadow)"/><circle cx="548.0" cy="392.0" r="19.0" fill="#221C38" stroke="#FF5C72" stroke-width="1.6"/><path d="M541.9,386.8 A7,2.6 0 0 0 554.1,386.8" fill="none" stroke="#FF5C72" stroke-width="1.7138000000000002" stroke-linecap="round" stroke-linejoin="round"/><path d="M541.9,386.8 A7,2.6 0 0 1 554.1,386.8" fill="none" stroke="#FF5C72" stroke-width="1.7138000000000002" stroke-linecap="round" stroke-linejoin="round"/><path d="M541.9,386.8 A7,2.6 0 0 0 554.1,386.8" fill="none" stroke="#FF5C72" stroke-width="1.7138000000000002" stroke-linecap="round" stroke-linejoin="round"/><path d="M541.9,392.0 A7,2.6 0 0 0 554.1,392.0" fill="none" stroke="#FF5C72" stroke-width="1.7138000000000002" stroke-linecap="round" stroke-linejoin="round"/><path d="M541.9,397.2 A7,2.6 0 0 0 554.1,397.2" fill="none" stroke="#FF5C72" stroke-width="1.7138000000000002" stroke-linecap="round" stroke-linejoin="round"/><line x1="541.9" y1="386.8" x2="541.9" y2="397.2" stroke="#FF5C72" stroke-width="1.7138000000000002" stroke-linecap="round"/><line x1="554.1" y1="386.8" x2="554.1" y2="397.2" stroke="#FF5C72" stroke-width="1.7138000000000002" stroke-linecap="round"/><text x="574.0" y="396.9" font-family="Segoe UI, Calibri, Arial, sans-serif" font-size="14.4" text-anchor="start"><tspan fill="#FFFFFF" font-weight="700">Evidence — raw, reproducible</tspan></text><line x1="296.0" y1="210.0" x2="514.0" y2="392.0" stroke="#5B3D9E" stroke-width="1.5" stroke-linecap="round" marker-end="url(#ar7)"/></svg>