<svg xmlns="http://www.w3.org/2000/svg" viewBox="0 0 1280 540" width="1280" height="540"><defs><filter id="softshadow" x="-30%" y="-30%" width="160%" height="160%"><feDropShadow dx="0" dy="4" stdDeviation="7" flood-color="#140C28" flood-opacity="0.30"/></filter><filter id="glow" x="-50%" y="-50%" width="200%" height="200%"><feGaussianBlur stdDeviation="5" result="b"/><feMerge><feMergeNode in="b"/><feMergeNode in="SourceGraphic"/></feMerge></filter><radialGradient id="rg1" cx="0.5" cy="0.4" r="0.7"><stop offset="0" stop-color="#A100FF" stop-opacity="0.07"/><stop offset="1" stop-color="#A100FF" stop-opacity="0"/></radialGradient><linearGradient id="lg2" x1="0" y1="0" x2="0" y2="1"><stop offset="0" stop-color="#9AA0AC"/><stop offset="1" stop-color="#535464"/></linearGradient><marker id="ar3" markerWidth="9" markerHeight="9" refX="6" refY="3" orient="auto"><path d="M0,0 L7,3 L0,6 Z" fill="#A100FF"/></marker><linearGradient id="lg4" x1="0" y1="0" x2="0" y2="1"><stop offset="0" stop-color="#00C2E8"/><stop offset="1" stop-color="#0E6380"/></linearGradient><marker id="ar5" markerWidth="9" markerHeight="9" refX="6" refY="3" orient="auto"><path d="M0,0 L7,3 L0,6 Z" fill="#A100FF"/></marker><linearGradient id="lg6" x1="0" y1="0" x2="0" y2="1"><stop offset="0" stop-color="#2FA8D9"/><stop offset="1" stop-color="#235779"/></linearGradient><marker id="ar7" markerWidth="9" markerHeight="9" refX="6" refY="3" orient="auto"><path d="M0,0 L7,3 L0,6 Z" fill="#A100FF"/></marker><linearGradient id="lg8" x1="0" y1="0" x2="0" y2="1"><stop offset="0" stop-color="#7A38D6"/><stop offset="1" stop-color="#452577"/></linearGradient><marker id="ar9" markerWidth="9" markerHeight="9" refX="6" refY="3" orient="auto"><path d="M0,0 L7,3 L0,6 Z" fill="#A100FF"/></marker><linearGradient id="lg10" x1="0" y1="0" x2="0" y2="1"><stop offset="0" stop-color="#FF5C72"/><stop offset="1" stop-color="#80354A"/></linearGradient><marker id="ar11" markerWidth="9" markerHeight="9" refX="6" refY="3" orient="auto"><path d="M0,0 L7,3 L0,6 Z" fill="#FF9F2E"/></marker><marker id="ar12" markerWidth="9" markerHeight="9" refX="6" refY="3" orient="auto"><path d="M0,0 L7,3 L0,6 Z" fill="#22C36B"/></marker><marker id="ar13" markerWidth="9" markerHeight="9" refX="6" refY="3" orient="auto"><path d="M0,0 L7,3 L0,6 Z" fill="#FF5C72"/></marker><linearGradient id="lg14" x1="0" y1="0" x2="0" y2="1"><stop offset="0" stop-color="#221C38"/><stop offset="1" stop-color="#19152A"/></linearGradient></defs><rect x="0.0" y="0.0" width="1280.0" height="540.0" rx="0.0" ry="0.0" fill="#FFFFFF"/><circle cx="1270.0" cy="6.0" r="180.0" fill="url(#rg1)"/><rect x="40.0" y="40.0" width="6.0" height="20.0" rx="3.0" ry="3.0" fill="#A100FF"/><text x="56.0" y="55.4" font-family="Segoe UI, Calibri, Arial, sans-serif" font-size="16" text-anchor="start"><tspan fill="#1B1430" font-weight="700">Adversarial loop — plan · ground · generate · critic · revise · decide</tspan></text><line x1="120.0" y1="200.0" x2="1080.0" y2="200.0" stroke="#5B3D9E" stroke-width="2" stroke-linecap="round" opacity="0.4"/><circle cx="120.0" cy="200.0" r="47.0" fill="#EDEEF0"/><circle cx="120.0" cy="200.0" r="44.0" fill="url(#lg2)" filter="url(#softshadow)"/><rect x="102.1" y="185.2" width="35.8" height="29.5" rx="4.2" ry="4.2" fill="none" stroke="#FFFFFF" stroke-width="4.1491999999999996"/><path d="M109.46,195.78 L115.78,201.05 L109.46,206.32" fill="none" stroke="#FFFFFF" stroke-width="4.1491999999999996" stroke-linecap="round" stroke-linejoin="round"/><line x1="120.0" y1="207.4" x2="128.4" y2="207.4" stroke="#FFFFFF" stroke-width="4.1491999999999996" stroke-linecap="round"/><text x="120.0" y="270.5" font-family="Segoe UI, Calibri, Arial, sans-serif" font-size="16.2" text-anchor="middle"><tspan fill="#1B1430" font-weight="700">Intake</tspan></text><line x1="168.0" y1="200.0" x2="312.0" y2="200.0" stroke="#A100FF" stroke-width="2.4" stroke-linecap="round" marker-end="url(#ar3)"/><circle cx="360.0" cy="200.0" r="47.0" fill="#D1F4FB"/><circle cx="360.0" cy="200.0" r="44.0" fill="url(#lg4)" filter="url(#softshadow)"/><path d="M360.0,184.2 A15.8,15.8 0 0 1 375.8,200.0 A15.8,15.8 0 0 1 360.0,215.8 A15.8,15.8 0 0 1 344.2,200.0" fill="none" stroke="#FFFFFF" stroke-width="4.1491999999999996" stroke-linecap="round" stroke-linejoin="round"/><path d="M353.68,179.97 L360.00,184.19 L354.73,190.51" fill="none" stroke="#FFFFFF" stroke-width="4.1491999999999996" stroke-linecap="round" stroke-linejoin="round"/><text x="360.0" y="270.5" font-family="Segoe UI, Calibri, Arial, sans-serif" font-size="16.2" text-anchor="middle"><tspan fill="#1B1430" font-weight="700">Plan</tspan></text><line x1="408.0" y1="200.0" x2="552.0" y2="200.0" stroke="#A100FF" stroke-width="2.4" stroke-linecap="round" marker-end="url(#ar5)"/><circle cx="600.0" cy="200.0" r="47.0" fill="#DAEFF8"/><circle cx="600.0" cy="200.0" r="44.0" fill="url(#lg6)" filter="url(#softshadow)"/><path d="M616.87,200.00 L610.17,204.11 L611.93,211.93 L604.28,210.09 L600.00,216.87 L595.89,210.17 L588.07,211.93 L589.91,204.28 L583.13,200.00 L589.83,195.89 L588.07,188.07 L595.72,189.91 L600.00,183.13 L604.11,189.83 L611.93,188.07 L610.09,195.72 Z" fill="none" stroke="#FFFFFF" stroke-width="4.1491999999999996" stroke-linecap="round" stroke-linejoin="round"/><circle cx="600.0" cy="200.0" r="5.1" fill="none" stroke="#FFFFFF" stroke-width="4.1491999999999996"/><text x="600.0" y="270.5" font-family="Segoe UI, Calibri, Arial, sans-serif" font-size="16.2" text-anchor="middle"><tspan fill="#1B1430" font-weight="700">Ground</tspan></text><line x1="648.0" y1="200.0" x2="792.0" y2="200.0" stroke="#A100FF" stroke-width="2.4" stroke-linecap="round" marker-end="url(#ar7)"/><circle cx="840.0" cy="200.0" r="47.0" fill="#E7DBF8"/><circle cx="840.0" cy="200.0" r="44.0" fill="url(#lg8)" filter="url(#softshadow)"/><path d="M840.00,181.02 L844.22,195.78 L858.98,200.00 L844.22,204.22 L840.00,218.97 L835.78,204.22 L821.03,200.00 L835.78,195.78 Z" fill="none" stroke="#FFFFFF" stroke-width="4.1491999999999996" stroke-linecap="round" stroke-linejoin="round"/><text x="840.0" y="270.5" font-family="Segoe UI, Calibri, Arial, sans-serif" font-size="16.2" text-anchor="middle"><tspan fill="#1B1430" font-weight="700">Generate</tspan></text><line x1="888.0" y1="200.0" x2="1032.0" y2="200.0" stroke="#A100FF" stroke-width="2.4" stroke-linecap="round" marker-end="url(#ar9)"/><circle cx="1080.0" cy="200.0" r="47.0" fill="#FFE2E6"/><circle cx="1080.0" cy="200.0" r="44.0" fill="url(#lg10)" filter="url(#softshadow)"/><path d="M1080.00,179.97 L1096.87,187.35 L1096.87,200.00 L1080.00,220.03 L1063.13,200.00 L1063.13,187.35 Z" fill="none" stroke="#FFFFFF" stroke-width="4.1491999999999996" stroke-linecap="round" stroke-linejoin="round"/><text x="1080.0" y="270.5" font-family="Segoe UI, Calibri, Arial, sans-serif" font-size="16.2" text-anchor="middle"><tspan fill="#1B1430" font-weight="700">Critic</tspan></text><path d="M1080.0,152.0 Q960.0,70.4 840.0,152.0" fill="none" stroke="#FF9F2E" stroke-width="2.2" stroke-linecap="round" marker-end="url(#ar11)"/><text x="960.0" y="100.7" font-family="Segoe UI, Calibri, Arial, sans-serif" font-size="13.8" text-anchor="middle"><tspan fill="#FF9F2E" font-weight="700">revise ≤ max_rounds</tspan></text><rect x="760.0" y="296.0" width="196.0" height="46.0" rx="23.0" ry="23.0" fill="#19152A" stroke="#22C36B" stroke-width="1.5"/><circle cx="785.0" cy="319.0" r="18.0" fill="#221C38" stroke="#22C36B" stroke-width="1.6"/><path d="M779.23,319.41 L783.35,323.95 L790.77,314.05" fill="none" stroke="#22C36B" stroke-width="1.94832" stroke-linecap="round" stroke-linejoin="round"/><text x="810.0" y="323.9" font-family="Segoe UI, Calibri, Arial, sans-serif" font-size="14.4" text-anchor="start"><tspan fill="#FFFFFF" font-weight="700">Accepted → artifacts</tspan></text><rect x="984.0" y="296.0" width="196.0" height="46.0" rx="23.0" ry="23.0" fill="#19152A" stroke="#FF5C72" stroke-width="1.5"/><circle cx="1009.0" cy="319.0" r="18.0" fill="#221C38" stroke="#FF5C72" stroke-width="1.6"/><path d="M1009.00,311.99 L1016.43,325.19 L1001.58,325.19 Z" fill="none" stroke="#FF5C72" stroke-width="1.6236000000000002" stroke-linecap="round" stroke-linejoin="round"/><line x1="1009.0" y1="316.5" x2="1009.0" y2="321.1" stroke="#FF5C72" stroke-width="1.6236000000000002" stroke-linecap="round"/><circle cx="1009.0" cy="323.1" r="0.7" fill="#FF5C72"/><text x="1034.0" y="323.9" font-family="Segoe UI, Calibri, Arial, sans-serif" font-size="14.4" text-anchor="start"><tspan fill="#FFFFFF" font-weight="700">Escalate → human</tspan></text><line x1="1064.0" y1="244.0" x2="858.0" y2="293.0" stroke="#22C36B" stroke-width="2.0" stroke-linecap="round" marker-end="url(#ar12)"/><line x1="1086.0" y1="244.0" x2="1082.0" y2="293.0" stroke="#FF5C72" stroke-width="2.0" stroke-linecap="round" marker-end="url(#ar13)"/><rect x="40.0" y="382.0" width="1200.0" height="64.0" rx="12.0" ry="12.0" fill="url(#lg14)" stroke="#5B3D9E" stroke-width="1.2" filter="url(#softshadow)"/><rect x="40.0" y="382.0" width="6.0" height="64.0" rx="3.0" ry="3.0" fill="#A100FF"/><circle cx="86.0" cy="414.0" r="18.0" fill="#221C38" stroke="#A100FF" stroke-width="1.6"/><circle cx="86.0" cy="414.0" r="7.0" fill="none" stroke="#A100FF" stroke-width="1.6236000000000002"/><circle cx="86.0" cy="414.0" r="4.0" fill="none" stroke="#A100FF" stroke-width="1.6236000000000002"/><circle cx="86.0" cy="414.0" r="1.2" fill="#A100FF"/><text x="118.0" y="406.1" font-family="Segoe UI, Calibri, Arial, sans-serif" font-size="15.0" text-anchor="start"><tspan fill="#FFFFFF" font-weight="700">Grounded on the shared rubric + client standards/ADRs</tspan></text><text x="118.0" y="429.5" font-family="Segoe UI, Calibri, Arial, sans-serif" font-size="13.2" text-anchor="start"><tspan fill="#9AA0AC" font-weight="400">deterministic tools are ground truth · every step logged to the immutable run record</tspan></text></svg>