<svg xmlns="http://www.w3.org/2000/svg" viewBox="0 0 1280 712" width="1280" height="712"><defs><filter id="softshadow" x="-30%" y="-30%" width="160%" height="160%"><feDropShadow dx="0" dy="4" stdDeviation="7" flood-color="#140C28" flood-opacity="0.30"/></filter><filter id="glow" x="-50%" y="-50%" width="200%" height="200%"><feGaussianBlur stdDeviation="5" result="b"/><feMerge><feMergeNode in="b"/><feMergeNode in="SourceGraphic"/></feMerge></filter><radialGradient id="rg1" cx="0.5" cy="0.4" r="0.7"><stop offset="0" stop-color="#A100FF" stop-opacity="0.07"/><stop offset="1" stop-color="#A100FF" stop-opacity="0"/></radialGradient><marker id="ar2" markerWidth="9" markerHeight="9" refX="6" refY="3" orient="auto"><path d="M0,0 L7,3 L0,6 Z" fill="#5B3D9E"/></marker><marker id="ar3" markerWidth="9" markerHeight="9" refX="6" refY="3" orient="auto"><path d="M0,0 L7,3 L0,6 Z" fill="#5B3D9E"/></marker><marker id="ar4" markerWidth="9" markerHeight="9" refX="6" refY="3" orient="auto"><path d="M0,0 L7,3 L0,6 Z" fill="#5B3D9E"/></marker></defs><rect x="0.0" y="0.0" width="1280.0" height="712.0" rx="0.0" ry="0.0" fill="#FFFFFF"/><circle cx="1270.0" cy="6.0" r="180.0" fill="url(#rg1)"/><rect x="40.0" y="40.0" width="6.0" height="20.0" rx="3.0" ry="3.0" fill="#A100FF"/><text x="56.0" y="55.4" font-family="Segoe UI, Calibri, Arial, sans-serif" font-size="16" text-anchor="start"><tspan fill="#1B1430" font-weight="700">Module interrelations</tspan></text><text x="40.0" y="99.5" font-family="Segoe UI, Calibri, Arial, sans-serif" font-size="13.2" text-anchor="start" letter-spacing="0.6"><tspan fill="#6B7280" font-weight="700">SURFACES</tspan></text><rect x="40.0" y="112.0" width="232.0" height="56.0" rx="10.0" ry="10.0" fill="#19152A" stroke="#22C36B" stroke-width="1.3" filter="url(#softshadow)"/><circle cx="70.0" cy="140.0" r="21.0" fill="#221C38" stroke="#22C36B" stroke-width="1.6"/><rect x="61.8" y="133.3" width="16.4" height="13.5" rx="1.9" ry="1.9" fill="none" stroke="#22C36B" stroke-width="1.8942"/><path d="M65.19,138.07 L68.08,140.48 L65.19,142.89" fill="none" stroke="#22C36B" stroke-width="1.8942" stroke-linecap="round" stroke-linejoin="round"/><line x1="70.0" y1="143.4" x2="73.9" y2="143.4" stroke="#22C36B" stroke-width="1.8942" stroke-linecap="round"/><text x="98.0" y="144.9" font-family="Segoe UI, Calibri, Arial, sans-serif" font-size="14.4" text-anchor="start"><tspan fill="#FFFFFF" font-weight="700">CLIs / demo</tspan></text><line x1="160.0" y1="168.0" x2="160.0" y2="206.0" stroke="#5B3D9E" stroke-width="2" stroke-linecap="round" marker-end="url(#ar2)"/><rect x="40.0" y="210.0" width="760.0" height="330.0" rx="16.0" ry="16.0" fill="#F7F4FC" stroke="#5B3D9E" stroke-width="1.4"/><text x="58.0" y="238.9" font-family="Segoe UI, Calibri, Arial, sans-serif" font-size="14.4" text-anchor="start" letter-spacing="0.6"><tspan fill="#7A38D6" font-weight="700">ENGINE</tspan></text><rect x="62.0" y="254.0" width="172.0" height="56.0" rx="10.0" ry="10.0" fill="#19152A" stroke="#A100FF" stroke-width="1.3" filter="url(#softshadow)"/><circle cx="92.0" cy="282.0" r="21.0" fill="#221C38" stroke="#A100FF" stroke-width="1.6"/><path d="M92.0,274.8 A7.2,7.2 0 0 1 99.2,282.0 A7.2,7.2 0 0 1 92.0,289.2 A7.2,7.2 0 0 1 84.8,282.0" fill="none" stroke="#A100FF" stroke-width="1.8942" stroke-linecap="round" stroke-linejoin="round"/><path d="M89.11,272.86 L92.00,274.78 L89.59,277.67" fill="none" stroke="#A100FF" stroke-width="1.8942" stroke-linecap="round" stroke-linejoin="round"/><text x="120.0" y="286.9" font-family="Segoe UI, Calibri, Arial, sans-serif" font-size="14.4" text-anchor="start"><tspan fill="#FFFFFF" font-weight="700">orchestrator</tspan></text><rect x="246.0" y="254.0" width="172.0" height="56.0" rx="10.0" ry="10.0" fill="#19152A" stroke="#22C36B" stroke-width="1.3" filter="url(#softshadow)"/><circle cx="276.0" cy="282.0" r="21.0" fill="#221C38" stroke="#22C36B" stroke-width="1.6"/><path d="M276.00,273.34 L277.93,280.07 L284.66,282.00 L277.93,283.93 L276.00,290.66 L274.07,283.93 L267.34,282.00 L274.07,280.07 Z" fill="none" stroke="#22C36B" stroke-width="1.8942" stroke-linecap="round" stroke-linejoin="round"/><text x="304.0" y="286.9" font-family="Segoe UI, Calibri, Arial, sans-serif" font-size="14.4" text-anchor="start"><tspan fill="#FFFFFF" font-weight="700">skills (6)</tspan></text><rect x="430.0" y="254.0" width="172.0" height="56.0" rx="10.0" ry="10.0" fill="#19152A" stroke="#FF5C72" stroke-width="1.3" filter="url(#softshadow)"/><circle cx="460.0" cy="282.0" r="21.0" fill="#221C38" stroke="#FF5C72" stroke-width="1.6"/><path d="M460.00,272.86 L467.70,276.22 L467.70,282.00 L460.00,291.14 L452.30,282.00 L452.30,276.22 Z" fill="none" stroke="#FF5C72" stroke-width="1.8942" stroke-linecap="round" stroke-linejoin="round"/><text x="488.0" y="286.9" font-family="Segoe UI, Calibri, Arial, sans-serif" font-size="14.4" text-anchor="start"><tspan fill="#FFFFFF" font-weight="700">critic</tspan></text><rect x="614.0" y="254.0" width="172.0" height="56.0" rx="10.0" ry="10.0" fill="#19152A" stroke="#FF9F2E" stroke-width="1.3" filter="url(#softshadow)"/><circle cx="644.0" cy="282.0" r="21.0" fill="#221C38" stroke="#FF9F2E" stroke-width="1.6"/><line x1="644.0" y1="274.3" x2="644.0" y2="289.7" stroke="#FF9F2E" stroke-width="1.8942" stroke-linecap="round"/><line x1="637.3" y1="276.7" x2="650.7" y2="276.7" stroke="#FF9F2E" stroke-width="1.8942" stroke-linecap="round"/><line x1="640.2" y1="289.7" x2="647.9" y2="289.7" stroke="#FF9F2E" stroke-width="1.8942" stroke-linecap="round"/><circle cx="644.0" cy="275.3" r="1.3" fill="#FF9F2E"/><path d="M634.4,276.7 A3,3 0 0 0 640.2,276.7" fill="none" stroke="#FF9F2E" stroke-width="1.8942" stroke-linecap="round" stroke-linejoin="round"/><line x1="637.3" y1="276.7" x2="634.4" y2="276.7" stroke="#FF9F2E" stroke-width="1.32594" stroke-linecap="round"/><line x1="637.3" y1="276.7" x2="640.2" y2="276.7" stroke="#FF9F2E" stroke-width="1.32594" stroke-linecap="round"/><path d="M647.9,276.7 A3,3 0 0 0 653.6,276.7" fill="none" stroke="#FF9F2E" stroke-width="1.8942" stroke-linecap="round" stroke-linejoin="round"/><line x1="650.7" y1="276.7" x2="647.9" y2="276.7" stroke="#FF9F2E" stroke-width="1.32594" stroke-linecap="round"/><line x1="650.7" y1="276.7" x2="653.6" y2="276.7" stroke="#FF9F2E" stroke-width="1.32594" stroke-linecap="round"/><text x="672.0" y="286.9" font-family="Segoe UI, Calibri, Arial, sans-serif" font-size="14.4" text-anchor="start"><tspan fill="#FFFFFF" font-weight="700">judge</tspan></text><rect x="62.0" y="384.0" width="172.0" height="56.0" rx="10.0" ry="10.0" fill="#19152A" stroke="#00C2E8" stroke-width="1.3" filter="url(#softshadow)"/><circle cx="92.0" cy="412.0" r="21.0" fill="#221C38" stroke="#00C2E8" stroke-width="1.6"/><circle cx="92.0" cy="412.0" r="8.2" fill="none" stroke="#00C2E8" stroke-width="1.8942"/><circle cx="92.0" cy="412.0" r="4.6" fill="none" stroke="#00C2E8" stroke-width="1.8942"/><circle cx="92.0" cy="412.0" r="1.3" fill="#00C2E8"/><text x="120.0" y="416.9" font-family="Segoe UI, Calibri, Arial, sans-serif" font-size="14.4" text-anchor="start"><tspan fill="#FFFFFF" font-weight="700">rubric</tspan></text><rect x="246.0" y="384.0" width="172.0" height="56.0" rx="10.0" ry="10.0" fill="#19152A" stroke="#7A38D6" stroke-width="1.3" filter="url(#softshadow)"/><circle cx="276.0" cy="412.0" r="21.0" fill="#221C38" stroke="#7A38D6" stroke-width="1.6"/><rect x="270.7" y="406.7" width="10.6" height="10.6" rx="1.9" ry="1.9" fill="none" stroke="#7A38D6" stroke-width="1.8942"/><rect x="273.6" y="409.6" width="4.8" height="4.8" rx="1.0" ry="1.0" fill="none" stroke="#7A38D6" stroke-width="1.5153600000000003"/><line x1="273.6" y1="403.8" x2="273.6" y2="406.7" stroke="#7A38D6" stroke-width="1.8942" stroke-linecap="round"/><line x1="273.6" y1="417.3" x2="273.6" y2="420.2" stroke="#7A38D6" stroke-width="1.8942" stroke-linecap="round"/><line x1="267.8" y1="409.6" x2="270.7" y2="409.6" stroke="#7A38D6" stroke-width="1.8942" stroke-linecap="round"/><line x1="281.3" y1="409.6" x2="284.2" y2="409.6" stroke="#7A38D6" stroke-width="1.8942" stroke-linecap="round"/><line x1="276.0" y1="403.8" x2="276.0" y2="406.7" stroke="#7A38D6" stroke-width="1.8942" stroke-linecap="round"/><line x1="276.0" y1="417.3" x2="276.0" y2="420.2" stroke="#7A38D6" stroke-width="1.8942" stroke-linecap="round"/><line x1="267.8" y1="412.0" x2="270.7" y2="412.0" stroke="#7A38D6" stroke-width="1.8942" stroke-linecap="round"/><line x1="281.3" y1="412.0" x2="284.2" y2="412.0" stroke="#7A38D6" stroke-width="1.8942" stroke-linecap="round"/><line x1="278.4" y1="403.8" x2="278.4" y2="406.7" stroke="#7A38D6" stroke-width="1.8942" stroke-linecap="round"/><line x1="278.4" y1="417.3" x2="278.4" y2="420.2" stroke="#7A38D6" stroke-width="1.8942" stroke-linecap="round"/><line x1="267.8" y1="414.4" x2="270.7" y2="414.4" stroke="#7A38D6" stroke-width="1.8942" stroke-linecap="round"/><line x1="281.3" y1="414.4" x2="284.2" y2="414.4" stroke="#7A38D6" stroke-width="1.8942" stroke-linecap="round"/><text x="304.0" y="416.9" font-family="Segoe UI, Calibri, Arial, sans-serif" font-size="14.4" text-anchor="start"><tspan fill="#FFFFFF" font-weight="700">llm + mock</tspan></text><rect x="430.0" y="384.0" width="172.0" height="56.0" rx="10.0" ry="10.0" fill="#19152A" stroke="#2FA8D9" stroke-width="1.3" filter="url(#softshadow)"/><circle cx="460.0" cy="412.0" r="21.0" fill="#221C38" stroke="#2FA8D9" stroke-width="1.6"/><circle cx="460.0" cy="412.0" r="8.2" fill="none" stroke="#2FA8D9" stroke-width="1.8942"/><line x1="460.0" y1="412.0" x2="460.0" y2="407.2" stroke="#2FA8D9" stroke-width="1.8942" stroke-linecap="round"/><line x1="460.0" y1="412.0" x2="463.8" y2="413.4" stroke="#2FA8D9" stroke-width="1.8942" stroke-linecap="round"/><text x="488.0" y="416.9" font-family="Segoe UI, Calibri, Arial, sans-serif" font-size="14.4" text-anchor="start"><tspan fill="#FFFFFF" font-weight="700">provenance</tspan></text><rect x="614.0" y="384.0" width="172.0" height="56.0" rx="10.0" ry="10.0" fill="#19152A" stroke="#9AA0AC" stroke-width="1.3" filter="url(#softshadow)"/><circle cx="644.0" cy="412.0" r="21.0" fill="#221C38" stroke="#9AA0AC" stroke-width="1.6"/><path d="M638.23,403.34 L646.89,403.34 L650.74,407.19 L650.74,420.66 L638.23,420.66 Z" fill="none" stroke="#9AA0AC" stroke-width="1.8942" stroke-linecap="round" stroke-linejoin="round"/><path d="M646.89,403.34 L646.89,407.19 L650.74,407.19" fill="none" stroke="#9AA0AC" stroke-width="1.8942" stroke-linecap="round" stroke-linejoin="round"/><line x1="641.1" y1="411.0" x2="647.9" y2="411.0" stroke="#9AA0AC" stroke-width="1.5153600000000003" stroke-linecap="round"/><line x1="641.1" y1="413.9" x2="647.9" y2="413.9" stroke="#9AA0AC" stroke-width="1.5153600000000003" stroke-linecap="round"/><line x1="641.1" y1="416.8" x2="647.9" y2="416.8" stroke="#9AA0AC" stroke-width="1.5153600000000003" stroke-linecap="round"/><text x="672.0" y="416.9" font-family="Segoe UI, Calibri, Arial, sans-serif" font-size="14.4" text-anchor="start"><tspan fill="#FFFFFF" font-weight="700">state (model)</tspan></text><text x="840.0" y="99.5" font-family="Segoe UI, Calibri, Arial, sans-serif" font-size="13.2" text-anchor="start" letter-spacing="0.6"><tspan fill="#6B7280" font-weight="700">DETERMINISTIC TOOLS</tspan></text><rect x="840.0" y="112.0" width="400.0" height="56.0" rx="10.0" ry="10.0" fill="#19152A" stroke="#2FA8D9" stroke-width="1.3" filter="url(#softshadow)"/><circle cx="870.0" cy="140.0" r="21.0" fill="#221C38" stroke="#2FA8D9" stroke-width="1.6"/><circle cx="865.2" cy="133.7" r="2.3" fill="none" stroke="#2FA8D9" stroke-width="1.8942"/><circle cx="865.2" cy="146.3" r="2.3" fill="none" stroke="#2FA8D9" stroke-width="1.8942"/><circle cx="874.8" cy="136.1" r="2.3" fill="none" stroke="#2FA8D9" stroke-width="1.8942"/><line x1="865.2" y1="136.1" x2="865.2" y2="143.8" stroke="#2FA8D9" stroke-width="1.8942" stroke-linecap="round"/><path d="M865.2,143.8 q0,-6 9.6,-6.5" fill="none" stroke="#2FA8D9" stroke-width="1.8942" stroke-linecap="round" stroke-linejoin="round"/><text x="898.0" y="144.9" font-family="Segoe UI, Calibri, Arial, sans-serif" font-size="14.4" text-anchor="start"><tspan fill="#FFFFFF" font-weight="700">git_tools</tspan></text><rect x="840.0" y="182.0" width="400.0" height="56.0" rx="10.0" ry="10.0" fill="#19152A" stroke="#00C2E8" stroke-width="1.3" filter="url(#softshadow)"/><circle cx="870.0" cy="210.0" r="21.0" fill="#221C38" stroke="#00C2E8" stroke-width="1.6"/><path d="M862.3,214.8 A8.5,8.5 0 0 1 877.7,214.8" fill="none" stroke="#00C2E8" stroke-width="1.8942" stroke-linecap="round" stroke-linejoin="round"/><line x1="870.0" y1="214.8" x2="873.9" y2="208.6" stroke="#00C2E8" stroke-width="1.8942" stroke-linecap="round"/><circle cx="870.0" cy="214.8" r="1.3" fill="#00C2E8"/><text x="898.0" y="214.9" font-family="Segoe UI, Calibri, Arial, sans-serif" font-size="14.4" text-anchor="start"><tspan fill="#FFFFFF" font-weight="700">ci_tools</tspan></text><rect x="840.0" y="252.0" width="400.0" height="56.0" rx="10.0" ry="10.0" fill="#19152A" stroke="#A100FF" stroke-width="1.3" filter="url(#softshadow)"/><circle cx="870.0" cy="280.0" r="21.0" fill="#221C38" stroke="#A100FF" stroke-width="1.6"/><path d="M870.00,271.34 L877.70,275.67 L877.70,284.33 L870.00,288.66 L862.30,284.33 L862.30,275.67 Z" fill="none" stroke="#A100FF" stroke-width="1.8942" stroke-linecap="round" stroke-linejoin="round"/><path d="M862.30,275.67 L870.00,280.00 L877.70,275.67" fill="none" stroke="#A100FF" stroke-width="1.8942" stroke-linecap="round" stroke-linejoin="round"/><line x1="870.0" y1="280.0" x2="870.0" y2="288.7" stroke="#A100FF" stroke-width="1.8942" stroke-linecap="round"/><text x="898.0" y="284.9" font-family="Segoe UI, Calibri, Arial, sans-serif" font-size="14.4" text-anchor="start"><tspan fill="#FFFFFF" font-weight="700">bundle_tools</tspan></text><rect x="840.0" y="322.0" width="400.0" height="56.0" rx="10.0" ry="10.0" fill="#19152A" stroke="#FF9F2E" stroke-width="1.3" filter="url(#softshadow)"/><circle cx="870.0" cy="350.0" r="21.0" fill="#221C38" stroke="#FF9F2E" stroke-width="1.6"/><circle cx="870.0" cy="350.0" r="8.2" fill="none" stroke="#FF9F2E" stroke-width="1.8942"/><line x1="861.8" y1="350.0" x2="878.2" y2="350.0" stroke="#FF9F2E" stroke-width="1.5153600000000003" stroke-linecap="round"/><path d="M870.0,341.8 A6,11 0 0 0 870.0,358.2" fill="none" stroke="#FF9F2E" stroke-width="1.5153600000000003" stroke-linecap="round" stroke-linejoin="round"/><path d="M870.0,341.8 A6,11 0 0 1 870.0,358.2" fill="none" stroke="#FF9F2E" stroke-width="1.5153600000000003" stroke-linecap="round" stroke-linejoin="round"/><text x="898.0" y="354.9" font-family="Segoe UI, Calibri, Arial, sans-serif" font-size="14.4" text-anchor="start"><tspan fill="#FFFFFF" font-weight="700">lang_tools</tspan></text><rect x="840.0" y="392.0" width="400.0" height="56.0" rx="10.0" ry="10.0" fill="#19152A" stroke="#FF5C72" stroke-width="1.3" filter="url(#softshadow)"/><circle cx="870.0" cy="420.0" r="21.0" fill="#221C38" stroke="#FF5C72" stroke-width="1.6"/><path d="M864.23,411.34 L872.89,411.34 L876.74,415.19 L876.74,428.66 L864.23,428.66 Z" fill="none" stroke="#FF5C72" stroke-width="1.8942" stroke-linecap="round" stroke-linejoin="round"/><path d="M872.89,411.34 L872.89,415.19 L876.74,415.19" fill="none" stroke="#FF5C72" stroke-width="1.8942" stroke-linecap="round" stroke-linejoin="round"/><line x1="867.1" y1="419.0" x2="873.9" y2="419.0" stroke="#FF5C72" stroke-width="1.5153600000000003" stroke-linecap="round"/><line x1="867.1" y1="421.9" x2="873.9" y2="421.9" stroke="#FF5C72" stroke-width="1.5153600000000003" stroke-linecap="round"/><line x1="867.1" y1="424.8" x2="873.9" y2="424.8" stroke="#FF5C72" stroke-width="1.5153600000000003" stroke-linecap="round"/><text x="898.0" y="424.9" font-family="Segoe UI, Calibri, Arial, sans-serif" font-size="14.4" text-anchor="start"><tspan fill="#FFFFFF" font-weight="700">discovery_tools</tspan></text><rect x="840.0" y="462.0" width="400.0" height="56.0" rx="10.0" ry="10.0" fill="#19152A" stroke="#22C36B" stroke-width="1.3" filter="url(#softshadow)"/><circle cx="870.0" cy="490.0" r="21.0" fill="#221C38" stroke="#22C36B" stroke-width="1.6"/><path d="M863.3,484.2 A7,2.6 0 0 0 876.7,484.2" fill="none" stroke="#22C36B" stroke-width="1.8942" stroke-linecap="round" stroke-linejoin="round"/><path d="M863.3,484.2 A7,2.6 0 0 1 876.7,484.2" fill="none" stroke="#22C36B" stroke-width="1.8942" stroke-linecap="round" stroke-linejoin="round"/><path d="M863.3,484.2 A7,2.6 0 0 0 876.7,484.2" fill="none" stroke="#22C36B" stroke-width="1.8942" stroke-linecap="round" stroke-linejoin="round"/><path d="M863.3,490.0 A7,2.6 0 0 0 876.7,490.0" fill="none" stroke="#22C36B" stroke-width="1.8942" stroke-linecap="round" stroke-linejoin="round"/><path d="M863.3,495.8 A7,2.6 0 0 0 876.7,495.8" fill="none" stroke="#22C36B" stroke-width="1.8942" stroke-linecap="round" stroke-linejoin="round"/><line x1="863.3" y1="484.2" x2="863.3" y2="495.8" stroke="#22C36B" stroke-width="1.8942" stroke-linecap="round"/><line x1="876.7" y1="484.2" x2="876.7" y2="495.8" stroke="#22C36B" stroke-width="1.8942" stroke-linecap="round"/><text x="898.0" y="494.9" font-family="Segoe UI, Calibri, Arial, sans-serif" font-size="14.4" text-anchor="start"><tspan fill="#FFFFFF" font-weight="700">sql_tools</tspan></text><line x1="800.0" y1="300.0" x2="836.0" y2="300.0" stroke="#5B3D9E" stroke-width="2" stroke-linecap="round" marker-end="url(#ar3)"/><rect x="40.0" y="560.0" width="760.0" height="132.0" rx="14.0" ry="14.0" fill="#1B1430" stroke="#5B3D9E" stroke-width="1.2" filter="url(#softshadow)"/><circle cx="80.0" cy="596.0" r="17.0" fill="#221C38" stroke="#A100FF" stroke-width="1.6"/><circle cx="80.0" cy="596.0" r="6.6" fill="none" stroke="#A100FF" stroke-width="1.5334000000000003"/><circle cx="80.0" cy="596.0" r="3.7" fill="none" stroke="#A100FF" stroke-width="1.5334000000000003"/><circle cx="80.0" cy="596.0" r="1.1" fill="#A100FF"/><text x="108.0" y="588.1" font-family="Segoe UI, Calibri, Arial, sans-serif" font-size="15.0" text-anchor="start" letter-spacing="0.5"><tspan fill="#FFFFFF" font-weight="700">CLIENT KNOWLEDGE</tspan></text><text x="108.0" y="615.7" font-family="Segoe UI, Calibri, Arial, sans-serif" font-size="13.8" text-anchor="start"><tspan fill="#9AA0AC" font-weight="400">standards/ (ADRs · conventions · cases)  ·  prompts/*.md</tspan></text><text x="108.0" y="641.2" font-family="Segoe UI, Calibri, Arial, sans-serif" font-size="13.2" text-anchor="start"><tspan fill="#CBD0D9" font-weight="400">the rubric references standards by id; critic &amp; skills load their prompts</tspan></text><line x1="420.0" y1="558.0" x2="420.0" y2="542.0" stroke="#5B3D9E" stroke-width="2" stroke-linecap="round" marker-end="url(#ar4)"/></svg>