<svg xmlns="http://www.w3.org/2000/svg" viewBox="0 0 1280 560" width="1280" height="560"><defs><filter id="softshadow" x="-30%" y="-30%" width="160%" height="160%"><feDropShadow dx="0" dy="4" stdDeviation="7" flood-color="#140C28" flood-opacity="0.30"/></filter><filter id="glow" x="-50%" y="-50%" width="200%" height="200%"><feGaussianBlur stdDeviation="5" result="b"/><feMerge><feMergeNode in="b"/><feMergeNode in="SourceGraphic"/></feMerge></filter><radialGradient id="rg1" cx="0.5" cy="0.4" r="0.7"><stop offset="0" stop-color="#A100FF" stop-opacity="0.07"/><stop offset="1" stop-color="#A100FF" stop-opacity="0"/></radialGradient><linearGradient id="lg2" x1="0" y1="0" x2="0" y2="1"><stop offset="0" stop-color="#00C2E8"/><stop offset="1" stop-color="#0E6380"/></linearGradient><linearGradient id="lg3" x1="0" y1="0" x2="0" y2="1"><stop offset="0" stop-color="#221C38"/><stop offset="1" stop-color="#19152A"/></linearGradient><linearGradient id="lg4" x1="0" y1="0" x2="0" y2="1"><stop offset="0" stop-color="#221C38"/><stop offset="1" stop-color="#19152A"/></linearGradient><marker id="ar5" markerWidth="9" markerHeight="9" refX="6" refY="3" orient="auto"><path d="M0,0 L7,3 L0,6 Z" fill="#A100FF"/></marker><marker id="ar6" markerWidth="9" markerHeight="9" refX="6" refY="3" orient="auto"><path d="M0,0 L7,3 L0,6 Z" fill="#A100FF"/></marker></defs><rect x="0.0" y="0.0" width="1280.0" height="560.0" rx="0.0" ry="0.0" fill="#FFFFFF"/><circle cx="1270.0" cy="6.0" r="180.0" fill="url(#rg1)"/><rect x="40.0" y="36.0" width="6.0" height="20.0" rx="3.0" ry="3.0" fill="#A100FF"/><text x="56.0" y="51.4" font-family="Segoe UI, Calibri, Arial, sans-serif" font-size="16" text-anchor="start"><tspan fill="#1B1430" font-weight="700">One shared rubric — single source for checks and prompts</tspan></text><circle cx="640.0" cy="150.0" r="43.0" fill="#D1F4FB"/><circle cx="640.0" cy="150.0" r="40.0" fill="url(#lg2)" filter="url(#softshadow)"/><circle cx="640.0" cy="150.0" r="16.3" fill="none" stroke="#FFFFFF" stroke-width="3.7720000000000002"/><circle cx="640.0" cy="150.0" r="9.2" fill="none" stroke="#FFFFFF" stroke-width="3.7720000000000002"/><circle cx="640.0" cy="150.0" r="2.7" fill="#FFFFFF"/><text x="640.0" y="215.7" font-family="Segoe UI, Calibri, Arial, sans-serif" font-size="16.8" text-anchor="middle"><tspan fill="#1B1430" font-weight="700">rubric.py — 17 criteria as data</tspan></text><text x="640.0" y="233.3" font-family="Segoe UI, Calibri, Arial, sans-serif" font-size="12.6" text-anchor="middle"><tspan fill="#6B7280" font-weight="400">severity · category · kind · applies_to · method · incident</tspan></text><rect x="120.0" y="300.0" width="460.0" height="110.0" rx="14.0" ry="14.0" fill="url(#lg3)" stroke="#5B3D9E" stroke-width="1.1" filter="url(#softshadow)"/><rect x="120.0" y="300.0" width="460.0" height="4.0" rx="2.0" ry="2.0" fill="#2FA8D9"/><circle cx="146.0" cy="330.0" r="15.0" fill="#221C38" stroke="#2FA8D9" stroke-width="1.6"/><path d="M151.50,330.00 L149.31,331.34 L149.89,333.89 L147.40,333.29 L146.00,335.50 L144.66,333.31 L142.11,333.89 L142.71,331.40 L140.50,330.00 L142.69,328.66 L142.11,326.11 L144.60,326.71 L146.00,324.50 L147.34,326.69 L149.89,326.11 L149.29,328.60 Z" fill="none" stroke="#2FA8D9" stroke-width="1.4" stroke-linecap="round" stroke-linejoin="round"/><circle cx="146.0" cy="330.0" r="1.7" fill="none" stroke="#2FA8D9" stroke-width="1.4"/><text x="168.0" y="333.5" font-family="Segoe UI, Calibri, Arial, sans-serif" font-size="16.2" text-anchor="start"><tspan fill="#FFFFFF" font-weight="700">Deterministic enforcement</tspan></text><text x="136.0" y="357.8" font-family="Segoe UI, Calibri, Arial, sans-serif" font-size="12.7" text-anchor="start"><tspan fill="#9AA0AC" font-weight="400">critic.deterministic_attacks</tspan></text><text x="136.0" y="372.8" font-family="Segoe UI, Calibri, Arial, sans-serif" font-size="12.7" text-anchor="start"><tspan fill="#9AA0AC" font-weight="400">mechanical, blocking (kind = deterministic)</tspan></text><rect x="700.0" y="300.0" width="460.0" height="110.0" rx="14.0" ry="14.0" fill="url(#lg4)" stroke="#5B3D9E" stroke-width="1.1" filter="url(#softshadow)"/><rect x="700.0" y="300.0" width="460.0" height="4.0" rx="2.0" ry="2.0" fill="#FF5C72"/><circle cx="726.0" cy="330.0" r="15.0" fill="#221C38" stroke="#FF5C72" stroke-width="1.6"/><path d="M726.00,323.47 L731.50,325.88 L731.50,330.00 L726.00,336.53 L720.50,330.00 L720.50,325.88 Z" fill="none" stroke="#FF5C72" stroke-width="1.4" stroke-linecap="round" stroke-linejoin="round"/><text x="748.0" y="333.5" font-family="Segoe UI, Calibri, Arial, sans-serif" font-size="16.2" text-anchor="start"><tspan fill="#FFFFFF" font-weight="700">Prompt enforcement</tspan></text><text x="716.0" y="357.8" font-family="Segoe UI, Calibri, Arial, sans-serif" font-size="12.7" text-anchor="start"><tspan fill="#9AA0AC" font-weight="400">rubric.prompt_block(skill) → critic prompt</tspan></text><text x="716.0" y="372.8" font-family="Segoe UI, Calibri, Arial, sans-serif" font-size="12.7" text-anchor="start"><tspan fill="#9AA0AC" font-weight="400">semantic attacks (kind = semantic)</tspan></text><line x1="580.0" y1="196.0" x2="350.0" y2="296.0" stroke="#A100FF" stroke-width="2.2" stroke-linecap="round" marker-end="url(#ar5)"/><line x1="700.0" y1="196.0" x2="930.0" y2="296.0" stroke="#A100FF" stroke-width="2.2" stroke-linecap="round" marker-end="url(#ar6)"/><rect x="360.0" y="470.0" width="560.0" height="60.0" rx="12.0" ry="12.0" fill="#1B1430" stroke="#5B3D9E" stroke-width="1.2" filter="url(#softshadow)"/><circle cx="398.0" cy="500.0" r="16.0" fill="#221C38" stroke="#FF9F2E" stroke-width="1.6"/><path d="M393.60,493.40 L400.20,493.40 L403.13,496.33 L403.13,506.60 L393.60,506.60 Z" fill="none" stroke="#FF9F2E" stroke-width="1.4432000000000003" stroke-linecap="round" stroke-linejoin="round"/><path d="M400.20,493.40 L400.20,496.33 L403.13,496.33" fill="none" stroke="#FF9F2E" stroke-width="1.4432000000000003" stroke-linecap="round" stroke-linejoin="round"/><line x1="395.8" y1="499.3" x2="400.9" y2="499.3" stroke="#FF9F2E" stroke-width="1.1545600000000003" stroke-linecap="round"/><line x1="395.8" y1="501.5" x2="400.9" y2="501.5" stroke="#FF9F2E" stroke-width="1.1545600000000003" stroke-linecap="round"/><line x1="395.8" y1="503.7" x2="400.9" y2="503.7" stroke="#FF9F2E" stroke-width="1.1545600000000003" stroke-linecap="round"/><text x="424.0" y="493.9" font-family="Segoe UI, Calibri, Arial, sans-serif" font-size="14.4" text-anchor="start"><tspan fill="#FFFFFF" font-weight="700">client standards / ADRs · cases</tspan></text><text x="424.0" y="517.3" font-family="Segoe UI, Calibri, Arial, sans-serif" font-size="12.6" text-anchor="start"><tspan fill="#9AA0AC" font-weight="400">each criterion references an ADR-xxxx / CASE-xxxx by id</tspan></text><line x1="640.0" y1="198.0" x2="640.0" y2="466.0" stroke="#5B3D9E" stroke-width="1.4" stroke-linecap="round" opacity="0.6"/></svg>