<svg xmlns="http://www.w3.org/2000/svg" viewBox="0 0 1280 720" width="1280" height="720"><defs><filter id="softshadow" x="-30%" y="-30%" width="160%" height="160%"><feDropShadow dx="0" dy="4" stdDeviation="7" flood-color="#140C28" flood-opacity="0.30"/></filter><filter id="glow" x="-50%" y="-50%" width="200%" height="200%"><feGaussianBlur stdDeviation="5" result="b"/><feMerge><feMergeNode in="b"/><feMergeNode in="SourceGraphic"/></feMerge></filter><radialGradient id="rg1" cx="0.5" cy="0.4" r="0.7"><stop offset="0" stop-color="#A100FF" stop-opacity="0.07"/><stop offset="1" stop-color="#A100FF" stop-opacity="0"/></radialGradient><marker id="ar2" markerWidth="9" markerHeight="9" refX="6" refY="3" orient="auto"><path d="M0,0 L7,3 L0,6 Z" fill="#5B3D9E"/></marker><marker id="ar3" markerWidth="9" markerHeight="9" refX="6" refY="3" orient="auto"><path d="M0,0 L7,3 L0,6 Z" fill="#5B3D9E"/></marker><marker id="ar4" markerWidth="9" markerHeight="9" refX="6" refY="3" orient="auto"><path d="M0,0 L7,3 L0,6 Z" fill="#5B3D9E"/></marker><marker id="ar5" markerWidth="9" markerHeight="9" refX="6" refY="3" orient="auto"><path d="M0,0 L7,3 L0,6 Z" fill="#5B3D9E"/></marker><marker id="ar6" markerWidth="9" markerHeight="9" refX="6" refY="3" orient="auto"><path d="M0,0 L7,3 L0,6 Z" fill="#5B3D9E"/></marker><marker id="ar7" markerWidth="9" markerHeight="9" refX="6" refY="3" orient="auto"><path d="M0,0 L7,3 L0,6 Z" fill="#5B3D9E"/></marker><marker id="ar8" markerWidth="9" markerHeight="9" refX="6" refY="3" orient="auto"><path d="M0,0 L7,3 L0,6 Z" fill="#5B3D9E"/></marker></defs><rect x="0.0" y="0.0" width="1280.0" height="720.0" rx="0.0" ry="0.0" fill="#FFFFFF"/><circle cx="1270.0" cy="6.0" r="180.0" fill="url(#rg1)"/><rect x="40.0" y="36.0" width="6.0" height="20.0" rx="3.0" ry="3.0" fill="#A100FF"/><text x="56.0" y="51.4" font-family="Segoe UI, Calibri, Arial, sans-serif" font-size="16" text-anchor="start"><tspan fill="#1B1430" font-weight="700">A run, step by step (pr_eval)</tspan></text><rect x="80.0" y="96.0" width="1120.0" height="64.0" rx="12.0" ry="12.0" fill="#19152A" stroke="#5B3D9E" stroke-width="1.1" filter="url(#softshadow)"/><rect x="80.0" y="96.0" width="5.0" height="64.0" rx="2.0" ry="2.0" fill="#9AA0AC"/><circle cx="114.0" cy="128.0" r="13.0" fill="#9AA0AC"/><text x="114.0" y="132.9" font-family="Segoe UI, Calibri, Arial, sans-serif" font-size="14.4" text-anchor="middle"><tspan fill="#19152A" font-weight="700">1</tspan></text><circle cx="160.0" cy="128.0" r="14.0" fill="#221C38" stroke="#9AA0AC" stroke-width="1.6"/><rect x="154.5" y="123.5" width="10.9" height="9.0" rx="1.3" ry="1.3" fill="none" stroke="#9AA0AC" stroke-width="1.4"/><path d="M156.79,126.72 L158.72,128.32 L156.79,129.93" fill="none" stroke="#9AA0AC" stroke-width="1.4" stroke-linecap="round" stroke-linejoin="round"/><line x1="160.0" y1="130.2" x2="162.6" y2="130.2" stroke="#9AA0AC" stroke-width="1.4" stroke-linecap="round"/><text x="184.0" y="122.1" font-family="Segoe UI, Calibri, Arial, sans-serif" font-size="15.0" text-anchor="start"><tspan fill="#FFFFFF" font-weight="700">Caller</tspan></text><text x="380.0" y="132.7" font-family="Segoe UI, Calibri, Arial, sans-serif" font-size="13.8" text-anchor="start"><tspan fill="#CBD0D9" font-weight="400">run(&quot;pr_eval&quot;, intake)</tspan></text><line x1="114.0" y1="160.0" x2="114.0" y2="174.0" stroke="#5B3D9E" stroke-width="1.8" stroke-linecap="round" marker-end="url(#ar2)"/><rect x="80.0" y="174.0" width="1120.0" height="64.0" rx="12.0" ry="12.0" fill="#19152A" stroke="#5B3D9E" stroke-width="1.1" filter="url(#softshadow)"/><rect x="80.0" y="174.0" width="5.0" height="64.0" rx="2.0" ry="2.0" fill="#A100FF"/><circle cx="114.0" cy="206.0" r="13.0" fill="#A100FF"/><text x="114.0" y="210.9" font-family="Segoe UI, Calibri, Arial, sans-serif" font-size="14.4" text-anchor="middle"><tspan fill="#19152A" font-weight="700">2</tspan></text><circle cx="160.0" cy="206.0" r="14.0" fill="#221C38" stroke="#A100FF" stroke-width="1.6"/><path d="M160.0,201.2 A4.8,4.8 0 0 1 164.8,206.0 A4.8,4.8 0 0 1 160.0,210.8 A4.8,4.8 0 0 1 155.2,206.0" fill="none" stroke="#A100FF" stroke-width="1.4" stroke-linecap="round" stroke-linejoin="round"/><path d="M158.08,199.90 L160.00,201.19 L158.40,203.11" fill="none" stroke="#A100FF" stroke-width="1.4" stroke-linecap="round" stroke-linejoin="round"/><text x="184.0" y="200.1" font-family="Segoe UI, Calibri, Arial, sans-serif" font-size="15.0" text-anchor="start"><tspan fill="#FFFFFF" font-weight="700">Orchestrator</tspan></text><text x="380.0" y="210.7" font-family="Segoe UI, Calibri, Arial, sans-serif" font-size="13.8" text-anchor="start"><tspan fill="#CBD0D9" font-weight="400">plan → select tools</tspan></text><line x1="114.0" y1="238.0" x2="114.0" y2="252.0" stroke="#5B3D9E" stroke-width="1.8" stroke-linecap="round" marker-end="url(#ar3)"/><rect x="80.0" y="252.0" width="1120.0" height="64.0" rx="12.0" ry="12.0" fill="#19152A" stroke="#5B3D9E" stroke-width="1.1" filter="url(#softshadow)"/><rect x="80.0" y="252.0" width="5.0" height="64.0" rx="2.0" ry="2.0" fill="#2FA8D9"/><circle cx="114.0" cy="284.0" r="13.0" fill="#2FA8D9"/><text x="114.0" y="288.9" font-family="Segoe UI, Calibri, Arial, sans-serif" font-size="14.4" text-anchor="middle"><tspan fill="#19152A" font-weight="700">3</tspan></text><circle cx="160.0" cy="284.0" r="14.0" fill="#221C38" stroke="#2FA8D9" stroke-width="1.6"/><path d="M165.13,284.00 L163.09,285.25 L163.63,287.63 L161.30,287.07 L160.00,289.13 L158.75,287.09 L156.37,287.63 L156.93,285.30 L154.87,284.00 L156.91,282.75 L156.37,280.37 L158.70,280.93 L160.00,278.87 L161.25,280.91 L163.63,280.37 L163.07,282.70 Z" fill="none" stroke="#2FA8D9" stroke-width="1.4" stroke-linecap="round" stroke-linejoin="round"/><circle cx="160.0" cy="284.0" r="1.5" fill="none" stroke="#2FA8D9" stroke-width="1.4"/><text x="184.0" y="278.1" font-family="Segoe UI, Calibri, Arial, sans-serif" font-size="15.0" text-anchor="start"><tspan fill="#FFFFFF" font-weight="700">Tools</tspan></text><text x="380.0" y="288.7" font-family="Segoe UI, Calibri, Arial, sans-serif" font-size="13.8" text-anchor="start"><tspan fill="#CBD0D9" font-weight="400">merge-base health · bundle validate · lang scan → ToolResult[]</tspan></text><line x1="114.0" y1="316.0" x2="114.0" y2="330.0" stroke="#5B3D9E" stroke-width="1.8" stroke-linecap="round" marker-end="url(#ar4)"/><rect x="80.0" y="330.0" width="1120.0" height="64.0" rx="12.0" ry="12.0" fill="#19152A" stroke="#5B3D9E" stroke-width="1.1" filter="url(#softshadow)"/><rect x="80.0" y="330.0" width="5.0" height="64.0" rx="2.0" ry="2.0" fill="#7A38D6"/><circle cx="114.0" cy="362.0" r="13.0" fill="#7A38D6"/><text x="114.0" y="366.9" font-family="Segoe UI, Calibri, Arial, sans-serif" font-size="14.4" text-anchor="middle"><tspan fill="#19152A" font-weight="700">4</tspan></text><circle cx="160.0" cy="362.0" r="14.0" fill="#221C38" stroke="#7A38D6" stroke-width="1.6"/><path d="M160.00,356.23 L161.28,360.72 L165.78,362.00 L161.28,363.28 L160.00,367.78 L158.72,363.28 L154.23,362.00 L158.72,360.72 Z" fill="none" stroke="#7A38D6" stroke-width="1.4" stroke-linecap="round" stroke-linejoin="round"/><text x="184.0" y="356.1" font-family="Segoe UI, Calibri, Arial, sans-serif" font-size="15.0" text-anchor="start"><tspan fill="#FFFFFF" font-weight="700">Skill</tspan></text><text x="380.0" y="366.7" font-family="Segoe UI, Calibri, Arial, sans-serif" font-size="13.8" text-anchor="start"><tspan fill="#CBD0D9" font-weight="400">generate verdict + PR body (a blocker forces changes-requested)</tspan></text><line x1="114.0" y1="394.0" x2="114.0" y2="408.0" stroke="#5B3D9E" stroke-width="1.8" stroke-linecap="round" marker-end="url(#ar5)"/><rect x="80.0" y="408.0" width="1120.0" height="64.0" rx="12.0" ry="12.0" fill="#19152A" stroke="#5B3D9E" stroke-width="1.1" filter="url(#softshadow)"/><rect x="80.0" y="408.0" width="5.0" height="64.0" rx="2.0" ry="2.0" fill="#FF5C72"/><circle cx="114.0" cy="440.0" r="13.0" fill="#FF5C72"/><text x="114.0" y="444.9" font-family="Segoe UI, Calibri, Arial, sans-serif" font-size="14.4" text-anchor="middle"><tspan fill="#19152A" font-weight="700">5</tspan></text><circle cx="160.0" cy="440.0" r="14.0" fill="#221C38" stroke="#FF5C72" stroke-width="1.6"/><path d="M160.00,433.90 L165.13,436.15 L165.13,440.00 L160.00,446.10 L154.87,440.00 L154.87,436.15 Z" fill="none" stroke="#FF5C72" stroke-width="1.4" stroke-linecap="round" stroke-linejoin="round"/><text x="184.0" y="434.1" font-family="Segoe UI, Calibri, Arial, sans-serif" font-size="15.0" text-anchor="start"><tspan fill="#FFFFFF" font-weight="700">Critic</tspan></text><text x="380.0" y="444.7" font-family="Segoe UI, Calibri, Arial, sans-serif" font-size="13.8" text-anchor="start"><tspan fill="#CBD0D9" font-weight="400">deterministic rubric + LLM attacks → CriticVerdict</tspan></text><line x1="114.0" y1="472.0" x2="114.0" y2="486.0" stroke="#5B3D9E" stroke-width="1.8" stroke-linecap="round" marker-end="url(#ar6)"/><rect x="80.0" y="486.0" width="1120.0" height="64.0" rx="12.0" ry="12.0" fill="#19152A" stroke="#5B3D9E" stroke-width="1.1" filter="url(#softshadow)"/><rect x="80.0" y="486.0" width="5.0" height="64.0" rx="2.0" ry="2.0" fill="#FF9F2E"/><circle cx="114.0" cy="518.0" r="13.0" fill="#FF9F2E"/><text x="114.0" y="522.9" font-family="Segoe UI, Calibri, Arial, sans-serif" font-size="14.4" text-anchor="middle"><tspan fill="#19152A" font-weight="700">6</tspan></text><circle cx="160.0" cy="518.0" r="14.0" fill="#221C38" stroke="#FF9F2E" stroke-width="1.6"/><path d="M160.0,513.2 A4.8,4.8 0 0 1 164.8,518.0 A4.8,4.8 0 0 1 160.0,522.8 A4.8,4.8 0 0 1 155.2,518.0" fill="none" stroke="#FF9F2E" stroke-width="1.4" stroke-linecap="round" stroke-linejoin="round"/><path d="M158.08,511.90 L160.00,513.19 L158.40,515.11" fill="none" stroke="#FF9F2E" stroke-width="1.4" stroke-linecap="round" stroke-linejoin="round"/><text x="184.0" y="512.1" font-family="Segoe UI, Calibri, Arial, sans-serif" font-size="15.0" text-anchor="start"><tspan fill="#FFFFFF" font-weight="700">Loop</tspan></text><text x="380.0" y="522.7" font-family="Segoe UI, Calibri, Arial, sans-serif" font-size="13.8" text-anchor="start"><tspan fill="#CBD0D9" font-weight="400">revise → critic, until clean or max_rounds (else escalate)</tspan></text><line x1="114.0" y1="550.0" x2="114.0" y2="564.0" stroke="#5B3D9E" stroke-width="1.8" stroke-linecap="round" marker-end="url(#ar7)"/><rect x="80.0" y="564.0" width="1120.0" height="64.0" rx="12.0" ry="12.0" fill="#19152A" stroke="#5B3D9E" stroke-width="1.1" filter="url(#softshadow)"/><rect x="80.0" y="564.0" width="5.0" height="64.0" rx="2.0" ry="2.0" fill="#22C36B"/><circle cx="114.0" cy="596.0" r="13.0" fill="#22C36B"/><text x="114.0" y="600.9" font-family="Segoe UI, Calibri, Arial, sans-serif" font-size="14.4" text-anchor="middle"><tspan fill="#19152A" font-weight="700">7</tspan></text><circle cx="160.0" cy="596.0" r="14.0" fill="#221C38" stroke="#22C36B" stroke-width="1.6"/><path d="M156.15,590.22 L161.93,590.22 L164.49,592.79 L164.49,601.77 L156.15,601.77 Z" fill="none" stroke="#22C36B" stroke-width="1.4" stroke-linecap="round" stroke-linejoin="round"/><path d="M161.93,590.22 L161.93,592.79 L164.49,592.79" fill="none" stroke="#22C36B" stroke-width="1.4" stroke-linecap="round" stroke-linejoin="round"/><line x1="158.1" y1="595.4" x2="162.6" y2="595.4" stroke="#22C36B" stroke-width="1.1199999999999999" stroke-linecap="round"/><line x1="158.1" y1="597.3" x2="162.6" y2="597.3" stroke="#22C36B" stroke-width="1.1199999999999999" stroke-linecap="round"/><line x1="158.1" y1="599.2" x2="162.6" y2="599.2" stroke="#22C36B" stroke-width="1.1199999999999999" stroke-linecap="round"/><text x="184.0" y="590.1" font-family="Segoe UI, Calibri, Arial, sans-serif" font-size="15.0" text-anchor="start"><tspan fill="#FFFFFF" font-weight="700">Finalize</tspan></text><text x="380.0" y="600.7" font-family="Segoe UI, Calibri, Arial, sans-serif" font-size="13.8" text-anchor="start"><tspan fill="#CBD0D9" font-weight="400">pr_verdict.md · pr_body.md</tspan></text><line x1="114.0" y1="628.0" x2="114.0" y2="642.0" stroke="#5B3D9E" stroke-width="1.8" stroke-linecap="round" marker-end="url(#ar8)"/><rect x="80.0" y="642.0" width="1120.0" height="64.0" rx="12.0" ry="12.0" fill="#19152A" stroke="#5B3D9E" stroke-width="1.1" filter="url(#softshadow)"/><rect x="80.0" y="642.0" width="5.0" height="64.0" rx="2.0" ry="2.0" fill="#00C2E8"/><circle cx="114.0" cy="674.0" r="13.0" fill="#00C2E8"/><text x="114.0" y="678.9" font-family="Segoe UI, Calibri, Arial, sans-serif" font-size="14.4" text-anchor="middle"><tspan fill="#19152A" font-weight="700">8</tspan></text><circle cx="160.0" cy="674.0" r="14.0" fill="#221C38" stroke="#00C2E8" stroke-width="1.6"/><circle cx="160.0" cy="674.0" r="5.5" fill="none" stroke="#00C2E8" stroke-width="1.4"/><line x1="160.0" y1="674.0" x2="160.0" y2="670.8" stroke="#00C2E8" stroke-width="1.4" stroke-linecap="round"/><line x1="160.0" y1="674.0" x2="162.6" y2="675.0" stroke="#00C2E8" stroke-width="1.4" stroke-linecap="round"/><text x="184.0" y="668.1" font-family="Segoe UI, Calibri, Arial, sans-serif" font-size="15.0" text-anchor="start"><tspan fill="#FFFFFF" font-weight="700">Provenance</tspan></text><text x="380.0" y="678.7" font-family="Segoe UI, Calibri, Arial, sans-serif" font-size="13.8" text-anchor="start"><tspan fill="#CBD0D9" font-weight="400">write runs/&lt;id&gt;.json</tspan></text></svg>